<?xml version="1.0" encoding="utf-8"?>
<!-- Generator: Adobe Illustrator 26.5.0, SVG Export Plug-In . SVG Version: 6.00 Build 0)  -->
<svg version="1.1" id="Calque_1" xmlns="http://www.w3.org/2000/svg" xmlns:xlink="http://www.w3.org/1999/xlink" x="0px" y="0px"
	 width="3444.1px" height="527.6px" viewBox="0 0 3444.1 527.6" style="enable-background:new 0 0 3444.1 527.6;"
	 xml:space="preserve">
<style type="text/css">
	.st0{fill:none;}
	.st1{fill:#FDFDFD;}
	.st2{fill:#E53429;}
	.st3{fill:#F08C86;}
</style>
<metadata><?xpacket begin="﻿" id="W5M0MpCehiHzreSzNTczkc9d"?>
<x:xmpmeta xmlns:x="adobe:ns:meta/" x:xmptk="Adobe XMP Core 7.2-c000 79.1b65a79, 2022/06/13-17:46:14        ">
   <rdf:RDF xmlns:rdf="http://www.w3.org/1999/02/22-rdf-syntax-ns#">
      <rdf:Description rdf:about=""
            xmlns:xmp="http://ns.adobe.com/xap/1.0/"
            xmlns:xmpGImg="http://ns.adobe.com/xap/1.0/g/img/"
            xmlns:xmpTPg="http://ns.adobe.com/xap/1.0/t/pg/"
            xmlns:stDim="http://ns.adobe.com/xap/1.0/sType/Dimensions#"
            xmlns:xmpG="http://ns.adobe.com/xap/1.0/g/"
            xmlns:dc="http://purl.org/dc/elements/1.1/">
         <xmp:CreatorTool>Adobe Illustrator 26.5 (Windows)</xmp:CreatorTool>
         <xmp:CreateDate>2022-08-25T14:53:52+02:00</xmp:CreateDate>
         <xmp:Thumbnails>
            <rdf:Alt>
               <rdf:li rdf:parseType="Resource">
                  <xmpGImg:width>256</xmpGImg:width>
                  <xmpGImg:height>40</xmpGImg:height>
                  <xmpGImg:format>JPEG</xmpGImg:format>
                  <xmpGImg:image>/9j/4AAQSkZJRgABAgEASABIAAD/7QAsUGhvdG9zaG9wIDMuMAA4QklNA+0AAAAAABAASAAAAAEA&#xA;AQBIAAAAAQAB/+4ADkFkb2JlAGTAAAAAAf/bAIQABgQEBAUEBgUFBgkGBQYJCwgGBggLDAoKCwoK&#xA;DBAMDAwMDAwQDA4PEA8ODBMTFBQTExwbGxscHx8fHx8fHx8fHwEHBwcNDA0YEBAYGhURFRofHx8f&#xA;Hx8fHx8fHx8fHx8fHx8fHx8fHx8fHx8fHx8fHx8fHx8fHx8fHx8fHx8fHx8f/8AAEQgAKAEAAwER&#xA;AAIRAQMRAf/EAaIAAAAHAQEBAQEAAAAAAAAAAAQFAwIGAQAHCAkKCwEAAgIDAQEBAQEAAAAAAAAA&#xA;AQACAwQFBgcICQoLEAACAQMDAgQCBgcDBAIGAnMBAgMRBAAFIRIxQVEGE2EicYEUMpGhBxWxQiPB&#xA;UtHhMxZi8CRygvElQzRTkqKyY3PCNUQnk6OzNhdUZHTD0uIIJoMJChgZhJRFRqS0VtNVKBry4/PE&#xA;1OT0ZXWFlaW1xdXl9WZ2hpamtsbW5vY3R1dnd4eXp7fH1+f3OEhYaHiImKi4yNjo+Ck5SVlpeYmZ&#xA;qbnJ2en5KjpKWmp6ipqqusra6voRAAICAQIDBQUEBQYECAMDbQEAAhEDBCESMUEFURNhIgZxgZEy&#xA;obHwFMHR4SNCFVJicvEzJDRDghaSUyWiY7LCB3PSNeJEgxdUkwgJChgZJjZFGidkdFU38qOzwygp&#xA;0+PzhJSktMTU5PRldYWVpbXF1eX1RlZmdoaWprbG1ub2R1dnd4eXp7fH1+f3OEhYaHiImKi4yNjo&#xA;+DlJWWl5iZmpucnZ6fkqOkpaanqKmqq6ytrq+v/aAAwDAQACEQMRAD8A9U4q7FXYq7FUp82apLpX&#xA;lvUdSicJLaQNLGWAILLuqmv8x+HK80+GBPc5egwDLnhA8pGkTo2safrOmQalp8vq2lwvKN6EHY0I&#xA;IPQgihwwmJCxya9Rp54ZmExUgjcm0KN3fWVnF615cR20VQvqTOsa1PQVYgVwGQHNnjxSmaiCT5bo&#xA;L/FHlr/q7WX/AEkRf81ZDxYd4+bf+Sz/AMyf+lKPtrq2uoVntpkngevCWJg6GhoaMtR1yYIO4cec&#xA;JRNSFHzau7qC0tZrq4YJBbo0srnoqICzH6AMSaFlOOBnIRHMmny95r83+YNY179LzSz2ylvV0xKs&#xA;giiViEMdKCo47sOpzn82aUpcXyfUdD2fhw4vDAEukvM9b/V3PonyP5h/xD5WsNUYj15U4XIFNpoz&#xA;wfYdKkcgPA5u8GTjgC+ddp6T8vnlj6Dl7jyT3LnAdirsVdirsVdirsVdirsVdirsVdirsVdirsVd&#xA;irsVdirsVdirsVdirsVef+c/N3l650y98sa+76LqN7EVQTK0sQNf3UoliDAxl070PiBmFnzRIMJe&#xA;kl6Ds7s/NHJHPhrJCJ6bHzFHrTE4PNN9+XXle20CD0NQ1u/d7qKSJzJBFDKQkTAinqF+HJRt7++M&#xA;MpwQERvIu3loY9o5zmNwxRqO+xJHP3VyevaKLSKxWzt7hrr6kfq88zsXcyqAX5t3arfF77Zs4VVD&#xA;o8fqeIz4pDh4twPLp8GMfmv5Ou/Mvl5VsiWvbFzNBbjjSUkcStWK0NNxmPrMByR25h2nYXaMdNm9&#xA;X0y2J7ni/wDyqn8wf+rPJ/wcX/Near8pl7ntf5d0f+qD5H9T3X8tvK8/lvypb2NyxN3KTcXKGlI5&#xA;JAKxjiSPhpSteubjS4jCFHm8H2zrRqdQZx+kbDzA6rfzK1rQdM8tyJrRma2vHWL0LagkloeZj5H7&#xA;KsFox8Dtvg1WSMYerqy7G02XLnBxVxR3s8h0v39z5380eZLrX9TN3LGtvBGiwWVnH/dwQJska/Lv&#xA;75pMuUzNvomh0cdPj4QbJ3J6k9S9e/5x+v2k0DUrE9La5WVT3pMlKf8AJLNn2dL0kebyHtZirNCf&#xA;86NfI/teqZsXlHYql2q+Y9B0in6T1C3s2YclSWRVdgTSqoTyI+QyE8sY8zTk4NHmzf3cZS9wR8Us&#xA;csSSxMHikUMjqaqysKggjsRkwbceUSDR5rsUOxV2KuxVBa1qtvpOkXmp3H91ZxPKy1py4ioUHxY7&#xA;DIZJiMST0b9NgObJGA5yNPOrD8z/AD/qEEd5ZeUWnspt4pEd6MoNNm4+3WmYMdVlkLENno8vYmjx&#xA;kxlnqQ9z1CNmaNGdDG7AFkJBKkjcVFRtmxDy0hRXYoSXVfOnlTSZDHqGq28EymjQ8w0gPuicmH0j&#xA;Kp54R5kObg7O1GUXCEiPdt81Cw/MPyTfy+lbazbGQ9Fkb0q/L1AlcjHU4zyIbMvZGqxi5Y5ff9zI&#xA;QQRUbg9Dl7rnYq7FXYq7FXYq7FXYq7FXkf516ZcJax313bjUrL1CEuUAhuLMN0jMihleJz05pUHu&#xA;a5rddE1ZFj7nr/ZvNEyMInglXLnGXnXSQ8jv3bML1i/8u/oHQLny3a3C62C9o00ztLLE8RVxwAoh&#xA;dmm+Bguw6AECmJOUeGJgPU7rT4s3i5Y55R8L6qGwN9/Wttx193Psv5cXiy+X4bOMLKljHHHPfRuH&#xA;jmunBkuArCvPgzDk9aMxPhm000vTXd9/V4ztjHWYyO3ETUeojyj7r6DoKYV+evm+e3az0CwneKT/&#xA;AHqvWiYq1N1iQlSPdiPlmL2hmIqId37L9niXFmmLHIX9p/R83kX6a1n/AJb7j/ka/wDXNZ4ku8vX&#xA;/lsf82PyD278jvNsupaTcaNeztLeWDepC0jFnaCQ+JqTwf8AAjNtoM3FHhPMPD+02gGPIMsRUZbH&#xA;3j9Y+4or81tO0y4utNvtfmWLy/piSyyQB6TXc704wRKCD+xu22x+kS1cQSDL6R9rV2FmnGM4YRea&#xA;dC+kR/OPzfP1xJFJcSyRRiGJ3Zo4QSwRSahanc0G2aU830GAIABNl6//AM48SsJtdh/ZZbZ/pBlH&#xA;8c2fZp+r4PIe10dsZ/rfoez5tXinkfnG6/MTytrl15jsr86loLSn1LQuZI4UZhRHjP2N9g6fT4Zr&#xA;M5y45GYNxev7Oho9ViGGUeDLXPkT5g9fcWC2fljzd591u41dYWS2u5meW+mNIY0DU4qTu3prsFXM&#xA;SOKeaXF3u9ya3T6DEMd+qI+kcz/a+jdMt4LbTra1t39SG2iSGN6g1EahRUj5ZvIgAAB84zTMpmR2&#xA;JN/NiP5t+YfMGgeXYL/Rplgk+srHO5RZDwZGps4YfaAzG1mSUI3Hvdv2BpMOozGGUX6dund3PIv+&#xA;Vy/mH/1cl/6R7f8A5ozWfncvf9z1/wDod0f8z/ZS/W7/AJXL+Yf/AFcl/wCke3/5ox/O5e/7l/0O&#xA;6P8Amf7KX63f8rl/MP8A6uS/9I9v/wA0Y/ncvf8Acv8Aod0f8z/ZS/WhdU/Mnzvrtk+k3t8Jra7K&#xA;o8SwwoW+IFRyVAftAZGeqyTHCTzbcHY2lwS8SMalHzP63t/mSefyv5EtLaxl9K7gNlZW8iKDVvUR&#xA;HoGB+0gbtm2yk48YA57B4fRxGq1cpTFxPHI/I19tJZ+WHmnVtVvdQtdTumuXSCGa25KooDJKkn2Q&#xA;vcLkNJllIkEuT23oceKMZYxW5B+Ua/Swz8zvzZvb26n0bQZzBp8ZMdxdxmjzEbMFYdE7bfa+WYmq&#xA;1hJ4Y8nd9i9gxhEZcwuZ3APT9v3ME0Pyf5o14F9K0+W6jBoZtkj5eHqOVSv05iY8M5/SHe6ntDBg&#xA;2ySEfLr8hura15B84aLAZ9S0uWKBftzJxlRf9Zoi4X6cM9POG5DDTdq6bMahME93L76TbyB+Zure&#xA;WbqO3uHe70VjSa1Y1MYJ3eGvQj+XofxFmn1UsZo7xcTtXsXHqYkj05e/v9/42fRK6rYPpX6VjmD2&#xA;Hom5Ey1IMQXnyp16ZvOMVxdHzo4JjJ4ZHruq82N/lh5l1HzHoNzqd8wLvezLCgAAjiAUogp1416n&#xA;fKNLlM4knvdl23o4abKIQ/mD4nfdl+ZLp3YqwX83PM/mLy7olreaMyR+pP6VxMyCQrVSyUDVXfid&#xA;yMw9ZllCIMXfdgaLDqMpjl3oWByeW6d+dvnu1mD3NxDfx1+KKaGNNvYwiM5r46/IOe71Ob2a0khU&#xA;QYnyJ/Tb2PyL+YOk+bbRzApttQgANzZOalQduSNtyT3p882mn1Mcg25vG9qdk5NJLfeB5H8cinV/&#xA;r+hadII9Q1K1s5CKhLiaOJiPk7DLZZIx5kBwsWky5BcISkPIEsR/Ma306+0VdQ06/WyvblOFvq0b&#xA;kWs0QP8AcXE6H0gj8jwL7V6d8xtSAY2DR7+nxdv2POcMvBOPFGJ3h/ED/OjHnY610efaWfPGqeQN&#xA;U0i2tbZbO1lR5L2IwQo0RDeuvqRkRPTipZq/ZrUmozCh4ksRiAKD0Of8ri1cMkpS4pD6TxHf+HY7&#xA;jyHfyZZ+Sd+k9nJpthMxstLTneM6gevc3TEhkrUrHGkNB0LVqQOmZOhlYoch95dT7SYjGQnMeqfL&#xA;+jGPf5kn4VQeWfmPcS3HnrWnlNWW6eMf6sfwKP8AgVGa7VG8kve9V2PAR0mMD+b9+7G8odkzf8mb&#xA;iWL8wtPjQ0W4S4jlHiogeSn/AASDMvQmsodH7RwB0cienD/ugP0p3+Zmjah5i/MDU44pFhs9Hs43&#xA;uruYkRRIIvVoSAficv8ACB1+jLdVAzynuiHB7F1ENPo4Ei5ZJmgOZ3r7KeW5r3qnsP8AzjxExn12&#xA;X9lVtl+ljKf4Zs+zRvL4PHe10tsY/rfoY9+an5gapq+uXWl2tw0OkWUjQLFE1BM6GjO5H2hyHwjp&#xA;T3ynV6kykQPpDsOw+yceHFHJIXkkL36X0H6WCW93c2zs9vK8TMrI5QkVVhxZTTqCDQjMMEjk7+eO&#xA;MuYtedS1A2K6f9Yk+oq5kW25H0+bAAtx6V2x4jVdGPgw4+Ohxcr6onQ/MOs6HeJd6XdPbyqdwp+B&#xA;hWvF16MPY5LHklA2C1anSYs8eHJEEfjk+gtUuo/Ov5V3N3EvB7u0ab06VpPbNyKjf/fkVB7Zupnx&#xA;cJPeHz7BA6LXiJ/hlXwl+wvmzNE+lOxV2Ksp/K/Sf0n550qE09OGX6zJUVFIAZAPpZQMyNJDiyB1&#xA;XbefwtLM94r57PfvP3l6613y7LbWchjv7d0u7I7UM0O6qeW3xdPnm51GMzjQ5vn/AGVq44MwlIXA&#xA;jhPuLyjy6NQ0f8uNZ81zzUvL6IabpoAClYzMVkb4afFyZqeHHNdiuOIzPM7B6zWcGbW49OB6Ynjl&#xA;762/R82Lflx5UTzN5ogsJq/U4lNxecdiYkIHEH/KZgv05jabD4k66O17Y1x02AzH1HYe8vp62tre&#xA;1t47e2jWGCJQkUSAKqqOgAGdAAAKD5fOcpEykbJXsqspVgGVhRlO4IOFANPnX84vJtr5e16K5sIx&#xA;Fp+pq0kcI+zHKhHqKv8Ak/EGHzp0GaPW4BCVjkX0X2e7RlqMRjM3OH2jonXkrzJdn8o/MtkSWbTk&#xA;aOFiekV4OJUfI8z9OW4Mp8CQ7v0uF2lo4/yjil/P5++P4DLPyI/5QmT/AJjZf+IR5k9n/wB38XU+&#xA;1H+ND+oP0vRcznnHYqlHmCw0TXtGudKvZozb3K05B15KwNVdd+qsAcqyRjOJiXM0mXLgyDJEG4vn&#xA;LXPJPmXy/qhhSFrtFJMF3aqZY5F9wvKnurfiM0eTBOB730fTdpYNRjsnh7wdiPx3hknkfTNRXUrf&#xA;WdPgk0vU7ORU1C1dGSKe2lPCSWAOAOSV5NF07rT7OX4IG+IbEc/d+Ojre080DA4pkThIek3uJDcA&#xA;10PSXz72OXflHzXfa8ba4jkuNSuZT9YunqYQT+085+D506dOu2UHDMyo83ZY+0NPDFxAgQiNh1+E&#xA;eb6B0bQdDsPKUHluaaKe0WAwXALgBzJUynrUcmYn2zdQxxEODo+e6nVZcmoOcAiXFY8q5PNrv8uI&#xA;/LEWp3MOsTXWjXcLW0llaRiS5b1SFTkgbgwjJ5E7dKbVzBOm8OzdxPdzelx9sHVGETjEckTdyNR2&#xA;578xfL+x6L5J8u+X/K+jrZ2NwsjTH1bi5kZQ8jkbVFfhAHRe3zzNwY4440HnO0tXm1WTimKrYDue&#xA;DeedI1afzjrM0FlPLDJdzNHIkTsrKWNCCBQjNPqISOQ7dXvuzNRjjpsYMgDwjqEj/QOuf9W65/5E&#xA;yf0ynw5dxc781i/nR+YZb+VGmalaef8AS7i6tJreBPX5zSxsiCttIBVmAAqTTMnRxIygkfinUdu5&#xA;oT0kxGQJ9PI/0gmH5paz5q1PWr/SrW0kXRkmBpbQtS4ZVUCSWRQfUpTbtsPDLNXOcpGIHp+9x+w9&#xA;Np8WKOSUh4ldT9PkB0YF+gdc/wCrdc/8iZP6ZheHLuLv/wA1i/nR+YevfkasWk2GrPqjrYSTyxLH&#xA;HcsIWYRqxqFfiafH1zZ6D0g3s8f7Tk5ZwGP1UDy35+73PKtT0LWTqV2UsZ5E9aTjJHG7ow5ndWUE&#xA;EHsRmunjlZ2erw6rFwRuQGw6ob9A65/1brn/AJEyf0yPhy7i2/msX86PzDv0Drn/AFbrn/kTJ/TH&#xA;w5dxX81i/nR+Yd+gdc/6t1z/AMiZP6Y+HLuK/msX86PzD3r8o5bXS/JVtbajcxW1zLLNJ9WmdUkV&#xA;S/EAoxBFeNfpzc6MiOOiXge34yy6oygCYgDcDZ4nrvlm/ttav4LG2murOK4kW2uIo2dHjDniwZQV&#xA;O3hmpyYiJEAbPb6XWwliiZERkYiwT1QP6B1z/q3XP/ImT+mQ8OXcW/8ANYv50fmHfoHXP+rdc/8A&#xA;ImT+mPhy7iv5rF/Oj8w9O/I7TY9Nv9T1LVWFg6xJb263X7ksJG5uV58enprmw0EeEky2eX9psxyQ&#xA;hDH6tyTW/Lly971TVvMOlppV49rqFublYJDAElRm5hDxoAdzXNjPIKNF5XBpMhyR4oy4bF7F4+tv&#xA;cz/ky+myMV1G2vvVisH2naMuPsxn4z/eFunjmsonBXW+T2JnGPaYmPolCuLpfv5dKb/JFLrTPNVw&#xA;t/azW0d1avHHNLG6IHV1ehZgAKqpx0FxnuOYR7SmOXTjgIJjLkD7w9y+u2f+/wCP/g1/rm34g8L4&#xA;cu4u+u2f+/4/+DX+uPEF8OXcXkv58PLfrpFnYQSXbRGaaV4UMgUNxVRyUHrQ7Zre0N6A3eu9lgMf&#xA;HKZEbob7JV+WmhwT+V/M2laxcfon9Ii3WJp6Rv8Auub8lR+JYVpWmVaXHcJCW1uX2zqTHPhyYx4n&#xA;Bxct+ddQy78mJYdO8oyW9/ItpN9clYRzn0nKlUo3F+JocytCeGFHbd0/tHE5NQJQHEOEct+/uZ5+&#xA;l9J/5bYP+Rqf1zM4497ofy+T+bL5F36X0n/ltg/5Gp/XHjj3r+XyfzZfIv8A/9k=</xmpGImg:image>
               </rdf:li>
            </rdf:Alt>
         </xmp:Thumbnails>
         <xmpTPg:MaxPageSize rdf:parseType="Resource">
            <stDim:w>3444.106445</stDim:w>
            <stDim:h>527.628967</stDim:h>
            <stDim:unit>Pixels</stDim:unit>
         </xmpTPg:MaxPageSize>
         <xmpTPg:NPages>1</xmpTPg:NPages>
         <xmpTPg:HasVisibleTransparency>False</xmpTPg:HasVisibleTransparency>
         <xmpTPg:HasVisibleOverprint>False</xmpTPg:HasVisibleOverprint>
         <xmpTPg:PlateNames>
            <rdf:Seq>
               <rdf:li>Cyan</rdf:li>
               <rdf:li>Magenta</rdf:li>
               <rdf:li>Yellow</rdf:li>
               <rdf:li>Black</rdf:li>
            </rdf:Seq>
         </xmpTPg:PlateNames>
         <xmpTPg:SwatchGroups>
            <rdf:Seq>
               <rdf:li rdf:parseType="Resource">
                  <xmpG:groupName>Groupe de nuances par défaut</xmpG:groupName>
                  <xmpG:groupType>0</xmpG:groupType>
               </rdf:li>
            </rdf:Seq>
         </xmpTPg:SwatchGroups>
         <dc:format>image/svg+xml</dc:format>
      </rdf:Description>
   </rdf:RDF>
</x:xmpmeta>
                                                                                                    
                                                                                                    
                                                                                                    
                                                                                                    
                                                                                                    
                                                                                                    
                                                                                                    
                                                                                                    
                                                                                                    
                                                                                                    
                                                                                                    
                                                                                                    
                                                                                                    
                                                                                                    
                                                                                                    
                                                                                                    
                                                                                                    
                                                                                                    
                                                                                                    
                                                                                                    
                           
<?xpacket end="w"?>
	</metadata>
<g>
	<path class="st0" d="M2951.2,523.4c14-30.2,18.9-61.9,13.3-94.7c-15.1-88.4-96.6-146.7-184.9-132.7
		c-105.1,16.6-165.6,130.5-120.3,226.5c0.9,1.9,1.8,3,3.2,3.6c94.8-0.3,189.6,0.7,284.5,0.1c0.5,0,1.1,0,1.6,0
		C2949.7,525.8,2950.5,525,2951.2,523.4z"/>
	<path class="st0" d="M2516.3,351.9c-0.2,0.3-0.4,0.6-0.6,0.9C2516.1,352.6,2516.2,352.3,2516.3,351.9z"/>
	<path class="st0" d="M1122.6,294C1122.6,294,1122.6,294,1122.6,294C1122.6,294,1122.7,294,1122.6,294
		C1122.7,294,1122.7,294,1122.6,294C1122.6,294,1122.6,294,1122.6,294z"/>
	<path class="st0" d="M1614.5,352.8c-0.2,0.2-0.4,0.3-0.6,0.3c0.3,0.2,0.6,0.5,0.9,0.8C1614.7,353.5,1614.6,353.2,1614.5,352.8z"/>
	<path class="st0" d="M314.2,521.8c0-0.3,0-0.6,0-0.9c-0.2,0.1-0.5,0.1-0.7,0.2C313.7,521.3,313.9,521.5,314.2,521.8z"/>
	<path class="st1" d="M1345,526.7c-3.8-0.1-7.6-0.1-11.3-0.2c0.7,0.2,1.6,0.3,2.7,0.2C1339.3,526.7,1342.2,526.7,1345,526.7z"/>
	<path class="st1" d="M2307.5,526.6c8.8,0,17.6,0,26.4,0c-10.3,0-20.6-0.1-31-0.1c0,0,0,0.1,0,0.1
		C2304.5,526.6,2306,526.6,2307.5,526.6z"/>
	<path class="st1" d="M3162.3,526.6c2.2,0,4.4,0,6.7,0c-4.2-0.1-8.4-0.2-12.6-0.2C3157.1,527,3158.8,526.6,3162.3,526.6z"/>
	<path class="st1" d="M3059.4,526.7c-0.7,0-1.5,0-2.2,0c0.5,0,1,0.1,1.6,0.1C3059,526.7,3059.2,526.7,3059.4,526.7z"/>
	<path class="st2" d="M166.9,356.3c-32.6-8.4-65.5-4.5-97.8,3.3c-7.3,1.8-11.4,8.2-9.9,15.6c11.9,57.1,38,105.3,88,138.2
		c7,4.6,14.4,8.5,21.9,12.8c33-0.1,66-0.1,99-0.1c3.8,0,7.6,0,11.4,0c-0.7-0.4-1.4-1-2-2c-19.6-33.7-47.9-58.8-80.3-79.6
		c-10.2-6.5-20.6-12.6-30.6-19.6c29.1,7,55.2,20.6,80,37c24.7,16.3,46.2,36.2,66.8,59.1c0.2,0,0.4-0.1,0.7-0.2
		c-0.1-9.9-1.5-18.4-3.9-26.6C289.3,420.6,240.4,375.4,166.9,356.3z"/>
	<path class="st2" d="M1400.8,527.1c-6.5,0-13,0-19.6,0C1387.8,527.2,1394.3,527.2,1400.8,527.1z"/>
	<path class="st2" d="M1610.9,352.5c-1.5-0.8-2.7-2-4-3c-16.5-13.1-34.8-22.5-55.8-25c-52.2-6.4-102.6,17.8-126.5,64.5
		c-14.4,28.2-18.2,58-15.9,89.1c1,14.1,3.1,28.1,6.2,41.9c1.2,5.2,0.9,6.7-2.7,7.1c142.6-2.1,285.3-0.7,427.9-0.6
		c3.7,0,7.4,0,11.1,0c-1.1-0.7-1.1-2.1-0.5-5c3.5-14.9,6.5-29.9,7.5-45.2c2.5-39.8-4.6-77-30.6-108.6
		c-20.4-24.8-47.3-38.5-78.9-42.8c-21.5-3-42.6-1.9-62.5,7.8c-8.9,4.3-17.2,9.5-25.1,15.4c-1.1,0.8-2.1,1.7-3.1,2.5
		c-5.4,4.1-6.6,3.7-7.9-3.1c-2.2-11.8-5.7-23.2-10.2-34.4c-2.6-6.4-2.1-7.5,4.6-8.7c16-2.8,31.6-7,45.9-14.9
		c19.5-10.7,32.7-26.2,36.4-48.4c1.9-11.3,1.6-22.9-1-34.2c-0.6-2.9-1.5-5.6-5.2-5.7c-22.2-0.5-43.6,2.2-62.9,14.2
		c-19.7,12.2-29.3,30.7-32.9,52.9c-0.4,2.5-0.6,5-1.1,7.4c-0.9,4.6-2.3,5-5.9,1.9c-4-3.5-7.8-7.3-11.8-10.8
		c-13.3-11.7-27.8-21.6-43.4-30.2c-3.9-2.2-7.9-4.2-12.3-5.4c-9.1-2.4-18.9,1.5-23.8,9.5c-4.6,7.5-3.6,19,2.2,25.6
		c3.8,4.4,8.9,6.9,14.1,9.2c14.5,6.2,27.9,14.1,39.9,24.4c14.9,12.8,24.9,28.9,31.4,47.2c0.3,0.9,0.6,1.9,0.7,2.9
		c0.1,1.5-0.1,2.5-0.6,3c0.1,0.4,0.2,0.7,0.3,1.1c-0.3-0.3-0.6-0.5-0.9-0.8C1613.1,353.3,1612.2,353.1,1610.9,352.5z"/>
	<path class="st2" d="M3340.9,527.1c-43.8,0-87.5,0-131.3,0C3253.4,527.5,3297.2,527.2,3340.9,527.1z"/>
	<path class="st2" d="M396.4,524.3c31.8-20.6,50.2-50.6,60.1-86.3c2.2-8-1.9-15.8-9.6-17c-29.3-4.7-58.4-5.5-86.2,7.1
		c-18,8.2-31.2,21.8-41.9,38.1c-1.1,1.7-1.2,3.2-0.3,5.1c5.4,12.4,9.3,25.2,10.7,38.7c0.4,3.8,2.1,2.7,4.2,1.5
		c20.3-11.9,39.3-25.6,58-39.7c1.8-1.4,3.7-2.7,6.3-3.2c-5.6,6.1-11,12.3-16.7,18.2c-12.7,13.2-26,25.7-40,37.6
		c-1.1,0.9-2.1,1.5-3.2,1.9c18.9,0,37.8,0,56.7,0C394.2,524.9,395.7,524.8,396.4,524.3z"/>
	<path class="st2" d="M3154.4,518.8c0-84.3,0-168.6,0-252.8c0-6.7-1.1-13.2-1.2-19.9c0-3.8-2-4.6-5.2-2.6c-2.2,1.3-3.6,3.4-5.1,5.4
		c-12.2,16.1-18.7,34.7-23.8,54c-7.5,28.7-11.5,58-13.8,87.5c-1.9,24.2-3.1,48.4-3,72.7c0,4.7,1.3,7.6,5.8,9.7
		c15.8,7.2,20.6,22,17.5,39.5c-1.9,11.2-2.6,14-9.1,14.7c9.9-0.3,19.8-1,29.6-0.7c3.2,0.1,6.4,0.1,9.5,0.2
		C3154.4,525.4,3154.4,523.4,3154.4,518.8z"/>
	<path class="st2" d="M2518.2,527.1c12.1,0.3,24.1,0.2,36.2,0c0,0,0,0,0,0C2542.3,527.1,2530.3,527.1,2518.2,527.1z"/>
	<path class="st2" d="M3437.5,527.2c-0.5,0-0.9-0.1-1.4-0.1c-3.1,0-6.2,0-9.2,0c2.9,0,5.8,0,8.7,0
		C3436.2,527.1,3436.8,527.2,3437.5,527.2z"/>
	<path class="st2" d="M2303,521.2c6-20.4,11-41.1,16.3-61.7c22.5-86.6,45.2-173.1,67.6-259.6c1.8-7,2.8-7.8,10-7.8
		c22.2-0.1,44.3,0,66.5,0c5.1,0,9.6-1.2,13-5.1c6.5-7.5,4.5-18.6-4.3-23.4c-3.6-2-7.6-2.4-11.6-2.4c-26.3,0-52.6,0-79,0
		c-0.8,0-1.7,0-2.5,0c-10.2,0.4-15.2,4.4-17.8,14.2c-4.7,17.7-9.3,35.4-13.8,53.1c-1.1,4.2-2.4,8.3-3.4,12.5c-0.8,3.2-2.7,4.8-6,4.8
		c-2.3,0.1-4.7,0.1-7,0.1c-137.4,0-274.9,0-412.3,0c-3.2,0-6.3-0.1-9.5,0.4c-10.4,1.9-15.7,9.9-13.2,20.1c3.8,15.9,8,31.6,12.2,47.3
		c9.2,35.2,18.3,70.5,27.6,105.7c9.1,34.4,17.5,69,27.2,103.2c0.8,2.7,0.4,3.9-1.1,4.3c109.7-1.8,219.3-1,329-0.5
		c3.9,0,7.7,0,11.6,0C2301.7,525.8,2302.1,524.3,2303,521.2z"/>
	<path class="st2" d="M2505.8,354.1c-1.8-0.7-2.6-1.9-2.9-3.7c-0.4-2.1-0.3-4.3-0.3-6.5c0-31.3,0-62.5,0-93.8c0-1.8,0.1-3.7-0.2-5.5
		c-0.3-2.1-1.8-2.6-3.6-2.6c-1.8,0-2.7,1-2.9,2.8c-0.2,1.8-0.2,3.7-0.2,5.5c0,30.9,0,61.8,0,92.8c0,1.7,0,3.3,0,5
		c-0.2,6.6-5.1,9.6-11.2,6.9c-1.8-0.8-2.4-2.2-2.6-3.9c-0.3-2-0.2-4-0.2-6c0-31.9,0-63.8-0.1-95.7c0-2.8,1.5-7.2-3.6-7.1
		c-4.7,0.2-3.2,4.4-3.2,7c-0.1,31.6-0.1,63.2-0.1,94.8c0,2,0,4-0.1,6c-0.1,3.7-2,5.5-5.6,5.5c-1.3,0-2.7,0.1-4,0
		c-4.9-0.3-6.7-1.5-6.2-6.4c1.5-13.1-0.1-26.3,1.5-39.3c0.2-1.3,0.3-2.6,0.3-4c-0.6-17,1.6-33.9,1-50.8c-0.1-2.8,0.3-5.6,0.7-8.4
		c0.2-2.1,0.2-4.2-2.6-4.5c-2.7-0.3-4.5,0.7-4.9,3.6c-1,7.7-2.1,15.5-2.9,23.2c-2.3,20.6-5,41.3-7.7,61.8
		c-2.4,18,2.2,32.9,15.6,46.1c17.4,17.1,23,38.8,19.2,62.8c-0.9,6.1-2.3,12.1-4.3,17.9c-2.2,6.5-3.2,13.2-3.1,20.1
		c0.2,14.1,0.1,28.3,0,42.4c0,4.6-0.1,6.2-2.3,6.7c9.2-0.3,18.5-1.2,27.7-0.6c3.6,0.2,7.2,0.4,10.8,0.6c-1.9-0.6-2.1-2-2.1-5.9
		c-0.1-15.5-0.1-30.9,0-46.4c0-5.7-0.6-11.2-1.7-16.8c-2.9-13.7-5.5-27.3-3.6-41.5c2.2-16.6,9.1-30.8,20.8-42.7
		c7.8-7.9,12.4-17.3,13.2-28.3c0.5-7-1.1-13.9-1.9-20.8c-3-25.4-5.9-50.8-8.8-76.3c-0.1-1-0.2-2-0.5-2.9c-0.7-2.6-2.6-3.2-5-3
		c-2.7,0.1-3.5,1.9-3.2,4.1c1.7,13.6,0.1,27.2,1.4,40.8c0.1,1.3,0.4,2.6,0.4,4c-0.5,18.5,1.4,36.9,1.1,55.3c0,2.3-0.5,4.2-1.3,5.6
		c-0.1,0.4-0.2,0.8-0.6,0.9C2513.7,355.2,2510.2,355.8,2505.8,354.1z"/>
	<path class="st2" d="M3054.2,521.4c3.4-12.9,6.3-25.9,7.7-39.1c5.3-49-1.4-96.1-22.9-140.8c-13.7-28.3-31.6-53.5-54.6-75
		c-39.8-37.3-86.6-60.1-140.8-67.7c-11.6-1.6-23.3-2.7-34.8-2.5c-34.8,0.4-68.6,6.4-100.7,20.5c-58.2,25.4-101.5,66.5-129.6,123.3
		c-15.1,30.6-23.2,63.1-25.1,97.3c-1.5,27.4,1.7,54,8.3,80.4c1.9,7.6,2.2,9-2.8,9.3c34.6-0.6,69.2-0.8,103.7-0.9
		c-1.4-0.6-2.3-1.7-3.2-3.6c-45.3-96,15.2-209.9,120.3-226.5c88.3-14,169.8,44.4,184.9,132.7c5.6,32.8,0.7,64.4-13.3,94.7
		c-0.7,1.6-1.6,2.4-2.6,2.8c31.5-0.2,62.9-0.7,94.4,0.1c3.7,0.1,7.4,0.2,11.2,0.3C3053.2,526,3053.4,524.6,3054.2,521.4z"/>
	<path class="st2" d="M0,526.6c0,0.3,0,0.7,0,1c0.5-0.5,1.1-0.8,1.7-1C1.1,526.6,0.6,526.6,0,526.6z"/>
	<path class="st2" d="M1036.3,526.1c4.2,0,8.4,0,12.6,0c-1.4-0.8-1.9-2.3-1.8-5.2c0.2-50.5,0.1-101.1,0.1-151.6
		c0-12-2.4-23.3-7.4-34.2c-16-34.8-31.9-69.7-47.7-104.6c-2.4-5.3-5.8-7.6-11.5-7.6c-47.1,0.1-94.3,0.1-141.4,0
		c-5.6,0-9,2.3-11.2,7.3c-16.3,36-32.8,71.8-49,107.8c-4.1,9-6.1,18.6-6.1,28.5c0,51.7-0.1,103.4,0.1,155.1c0,2.6-0.4,3.9-1.6,4.6
		C859.7,526.1,948,526.1,1036.3,526.1z"/>
	<path class="st2" d="M1319.7,526.4c3.7,0,7.4,0.1,11.1,0.1c-1.1-0.7-1-2.3-0.5-5.7c2.3-15.1,4.4-30.3,6.1-45.5
		c2.4-20.5,4.1-41,5.8-61.5c3.5-41.8,3.3-83.7,2.6-125.5c-0.5-28.2-2.8-56.4-6.1-84.4c-3.2-27.6-7.5-55-13.8-82.1
		c-6.2-26.8-14-53.1-26.4-77.7c-4.4-8.8-9.6-17.1-15.9-24.7c-5.7-7-12.5-12.3-20.8-15.9c-1.7-0.7-3.9-1-4.2-3.5c-0.3,0-0.7,0-1,0
		c-2.9,2-6.1,0.6-9.1,0.9c-11.5,2-19.9,8.9-27.5,17c-14,14.8-23.8,32.3-32.6,50.5c-12.5,25.7-22.1,52.6-30.7,79.8
		c-0.2,0.6-0.2,1.3-0.5,2.6c7.3-3.8,12.9-8.7,18.3-13.9c11.6-11.1,21-24,29.6-37.5c5.1-8,14.4-10,21.6-5c6.6,4.5,8.9,13,4.6,19.8
		c-13.6,22.1-29.4,42.3-50.8,57.6c-9.5,6.8-19.8,12.2-31.4,14.6c-1.9,0.4-2.9,1.2-3.4,3c-8.7,33.8-16.1,67.8-22.1,102.1
		c-0.1,0.6,0,1.3,0,2.4c0,0,0,0,0,0c0,0,0,0,0,0c8.9-5.2,16.2-11.6,22.9-18.7c9.5-10.1,17.5-21.3,25-32.9c4.2-6.6,11.4-9,18.2-6.6
		c6.5,2.4,10.5,8.7,9.9,15.7c-0.2,2-0.8,3.9-1.8,5.6c-13.8,22.4-29.8,42.8-51.5,58.3c-7.9,5.6-16.4,10.2-25.7,12.9
		c-2.1,0.6-3.4,1.5-3.7,3.9c-5.2,36-9.6,72.1-12.7,108.3c0,0.3,0.2,0.6,0.5,1.3c7.6-3.5,14.2-8.4,20.3-13.9
		c13-11.7,23.2-25.6,32.6-40.2c4.9-7.7,13.3-9.9,20.7-5.7c6.8,3.9,10.1,12.8,6,19.4c-16.7,27.1-36.1,51.9-65.3,67
		c-4.6,2.4-9.4,4.3-14.4,5.5c-2.2,0.5-3.2,1.5-3.3,4c-0.6,13.9-1.5,27.8-2.3,41.8c-0.2,4-0.3,5.7-1.6,6.4
		C1170.9,526,1245.3,525.7,1319.7,526.4z"/>
	<path class="st2" d="M648.6,522c-0.8-5.6-2.3-11-3.7-16.5c-2-8.1-9.4-13-17.2-11.5c-8.3,1.6-13.5,8.7-12.1,17.2c0.8,5,2,9.9,3.1,15
		c10.8,0,21.6,0,32.4,0C649.6,525.6,648.9,524.4,648.6,522z"/>
	<path class="st2" d="M3440.1,527.1c-0.6,0.1-1.6,0.1-2.7,0.1C3438.6,527.3,3439.6,527.4,3440.1,527.1z"/>
	<path class="st2" d="M1936.6,527.1c7.6,0,15.2,0,22.8,0c1,0,1.9-0.1,2.5-0.3c-0.9,0-1.9,0-2.8,0
		C1951.6,527.1,1944.1,527.1,1936.6,527.1z"/>
	<path class="st2" d="M1855.4,527.1c22.2,0,44.4,0,66.6,0c-16.3-0.1-32.7-0.3-49-0.5c-6.2,0-12.4,0-18.6,0c-0.8,0-1.4-0.1-1.8-0.2
		c-0.4,0-0.8,0-1.2,0C1852.1,527,1853.4,527.1,1855.4,527.1z"/>
	<path class="st2" d="M1400.8,527.1c2.8,0,5.5,0,8.3,0c1.3,0,2.3,0,3.2-0.1c-0.8,0-1.5,0-2.3,0
		C1406.9,527.1,1403.9,527.1,1400.8,527.1z"/>
	<path class="st2" d="M3438.7,526.6c-89.9,0-179.8,0-269.7,0c13.6,0.2,27.1,0.4,40.7,0.5c43.8,0,87.5,0,131.3,0
		c28.6-0.1,57.3-0.2,85.9,0c3.1,0,6.2,0,9.2,0c0.5,0,1,0,1.4,0.1c1.1,0,2,0,2.7-0.1c-0.6,0.3-1.6,0.2-2.7,0.1c-0.6,0-1.3,0-1.9,0
		c-2.9,0-5.8,0-8.7,0c-28.6,0-57.3,0-85.9,0c-43.8,0.1-87.5,0.4-131.3,0c-15.7,0-31.3,0-47,0c-3.7,0-5.7,0-6.8-0.8
		c-3.2-0.1-6.4-0.1-9.5-0.2c-9.9-0.2-19.8,0.4-29.6,0.7c-2.2,0.2-5.1,0.2-9,0.2c-16.3,0-32.7,0-49,0c-2.3,0-3.7-0.1-4.4-0.5
		c-3.7-0.1-7.4-0.2-11.2-0.3c-31.4-0.8-62.9-0.3-94.4-0.1c-1.1,0.4-2.3,0.4-3.7,0.4c-46.5,0-93,0-139.4,0c-46.5,0-93,0-139.4,0.1
		c-1.4,0-2.5-0.2-3.5-0.6c-34.6,0.1-69.2,0.4-103.7,0.9c-1.2,0.1-2.7,0.1-4.5,0.1c-12,0.2-24.1,0.3-36.2,0c-2.1,0-4.2,0-6.3,0
		c-1.9,0-3.2-0.1-4.1-0.3c-3.6-0.1-7.2-0.3-10.8-0.6c-9.2-0.6-18.5,0.3-27.7,0.6c-1,0.2-2.5,0.3-4.7,0.3c-52.3,0-104.6,0-156.9,0
		c-3,0-4.6,0-5.2-0.6c-3.9,0-7.7,0-11.6,0c-109.6-0.5-219.3-1.3-329,0.5c-0.6,0.2-1.4,0.3-2.5,0.3c-7.6,0-15.2,0-22.8,0
		c-4.9,0-9.8,0-14.6,0c-22.2,0-44.4,0-66.6,0c-2,0-3.3-0.1-4-0.6c-3.7,0-7.4,0-11.1,0c-142.6-0.1-285.3-1.5-427.9,0.6
		c-0.9,0.1-1.9,0.1-3.2,0.1c-2.8,0-5.5,0-8.3,0c-6.5,0-13,0-19.6,0c-15.2,0-30.4,0-45.6,0c-2.5,0-4-0.1-4.9-0.6
		c-3.7,0-7.4-0.1-11.1-0.1c-74.4-0.7-148.8-0.4-223.1-0.3c-1,0.5-2.6,0.5-5.4,0.5c-12.7,0-25.3-0.2-38,0.1c-1.9,0.1-3.3-0.1-4.2-0.6
		c-4.2,0-8.4,0-12.6,0c-88.3-0.1-176.6,0-264.9,0c-0.8,0.4-1.9,0.6-3.5,0.6c-37.8-0.2-75.6-0.2-113.5,0c-1.4,0-2.5-0.1-3.3-0.5
		c-10.8,0-21.6,0-32.4,0c0,0.1,0,0.1,0,0.2c-74.9,0-149.5,0-224.2,0c0-0.1,0-0.2,0-0.3c-18.9,0-37.8,0-56.7,0
		c-1.1,0.4-2.2,0.5-3.5,0.5c-17.2-0.1-34.3-0.1-51.5,0c-1.3,0-2.4-0.1-3.4-0.5c-3.8,0-7.6,0-11.4,0c-33,0-66,0-99,0.1
		c0.3,0.2,0.5,0.3,0.8,0.5c-56.1,0-112.1,0-168.2,0c-0.6,0.2-1.2,0.5-1.7,1c1148,0,2296.1,0,3444.1,0c0-0.3,0-0.7,0-1
		C3442.3,526.6,3440.5,526.6,3438.7,526.6z"/>
	<path class="st2" d="M3340.9,527.1c28.6,0,57.3,0,85.9,0C3398.2,526.9,3369.6,527,3340.9,527.1z"/>
	<path class="st2" d="M1936.6,527.1c7.5,0,15-0.1,22.5-0.2c0.9,0,1.9,0,2.8,0c1.6-0.5,1.9-1.7,1.1-4.3
		c-9.7-34.2-18.1-68.8-27.2-103.2c-9.3-35.2-18.4-70.5-27.6-105.7c-4.1-15.8-8.4-31.5-12.2-47.3c-2.4-10.2,2.9-18.2,13.2-20.1
		c3.1-0.6,6.3-0.4,9.5-0.4c137.4,0,274.9,0,412.3,0c2.3,0,4.7,0,7-0.1c3.3-0.1,5.2-1.7,6-4.8c1.1-4.2,2.4-8.3,3.4-12.5
		c4.5-17.7,9.1-35.4,13.8-53.1c2.6-9.9,7.6-13.8,17.8-14.2c0.8,0,1.7,0,2.5,0c26.3,0,52.6,0,79,0c4,0,8,0.4,11.6,2.4
		c8.8,4.8,10.8,15.9,4.3,23.4c-3.4,3.9-8,5.1-13,5.1c-22.2,0-44.3-0.1-66.5,0c-7.1,0-8.2,0.8-10,7.8
		c-22.4,86.6-45.1,173.1-67.6,259.6c-5.4,20.6-10.3,41.3-16.3,61.7c-0.9,3.2-1.4,4.6-0.6,5.3c0.2,0,0.3,0,0.5,0
		c0.9-2.7,1.9-5.2,2.5-7.7c27.9-106.9,55.8-213.8,83.6-320.7c0.9-3.6,2.3-4.6,6-4.6c23,0.2,46,0.1,69,0.1c10.7,0,18.2-7.1,18.2-17
		c-0.1-9.8-7.8-16.9-18.4-16.9c-28.5,0-57,0-85.5,0c-9.7,0-15.6,4.5-18.1,13.9c-5.7,21.5-11.5,42.9-16.7,64.5
		c-1.3,5.3-3.4,6.5-8.6,6.5c-140.3-0.2-280.6,0-420.8-0.3c-14.2,0-23,10.6-19.2,24.9c22.8,85.7,44.9,171.5,67.3,257.4
		c-29.6,0-59.3,0-89.1,0c16.3,0.2,32.7,0.4,49,0.5C1926.8,527.1,1931.7,527.1,1936.6,527.1z"/>
	<path class="st2" d="M2307.6,527.1c52.3,0,104.6,0,156.9,0c2.2,0,3.7,0,4.7-0.3c-2.1,0.1-4.1,0.1-6.2,0.1
		c-43.1-0.1-86.2-0.2-129.3-0.3c-8.8,0-17.6,0-26.4,0c-1.5,0-3,0-4.6,0c0,0,0-0.1,0-0.1c-0.2,0-0.3,0-0.5,0
		C2303.1,527.1,2304.6,527.1,2307.6,527.1z"/>
	<path class="st2" d="M3058.6,527.1c16.3,0,32.7,0,49,0c3.9,0,6.8,0,9-0.2c-1.1,0-2.2,0.1-3.2,0.1c-18,0.3-36,0.1-53.9-0.2
		c-0.2,0-0.4,0-0.6,0c-0.6,0-1.1,0-1.6-0.1c-1,0-2,0-3-0.1C3054.9,527.1,3056.3,527.1,3058.6,527.1z"/>
	<path class="st2" d="M2511.9,527.1c2.1,0,4.2,0,6.3,0c-3.5-0.1-6.9-0.2-10.4-0.3C2508.7,527.1,2510,527.1,2511.9,527.1z"/>
	<path class="st2" d="M3113.4,526.9c1.1,0,2.2,0,3.2-0.1c6.5-0.7,7.2-3.5,9.1-14.7c3-17.5-1.7-32.3-17.5-39.5
		c-4.6-2.1-5.8-5-5.8-9.7c-0.1-24.3,1-48.5,3-72.7c2.3-29.6,6.3-58.8,13.8-87.5c5-19.2,11.6-37.9,23.8-54c1.5-2,2.9-4.1,5.1-5.4
		c3.2-2,5.2-1.2,5.2,2.6c0,6.7,1.2,13.2,1.2,19.9c-0.1,84.3-0.1,168.6,0,252.8c0,4.6,0,6.6,1.4,7.5c0.2,0,0.4,0,0.6,0
		c-0.7-0.6-0.6-2.3-0.6-6.4c-0.3-91.6,0.5-183.2-0.4-274.8c0-1.6,0.9-3.9-0.9-4.5c-2.1-0.7-4.6-1-6.6,0.7c-1.4,1.2-2.7,2.4-4,3.8
		c-4.3,4.7-7.7,10-10.6,15.6c-10.2,19.3-16,40-20.3,61.2c-9.7,47.9-12.3,96.4-12.3,145.2c0,3.3,1.2,4.5,4.1,5.5
		c13.4,5,20,14.7,20.3,28.9c0.2,7.2-1.4,14.1-3.6,21c-1,3-2.4,4.1-5.6,4c-18.8-0.2-37.6-0.2-56.3,0
		C3077.4,527.1,3095.4,527.2,3113.4,526.9z"/>
	<path class="st2" d="M2469.3,526.9c2.2-0.5,2.3-2.1,2.3-6.7c0.1-14.1,0.2-28.3,0-42.4c-0.1-6.9,0.9-13.6,3.1-20.1
		c2-5.9,3.4-11.9,4.3-17.9c3.7-24-1.8-45.7-19.2-62.8c-13.4-13.1-17.9-28-15.6-46.1c2.7-20.6,5.4-41.2,7.7-61.8
		c0.9-7.8,1.9-15.5,2.9-23.2c0.4-2.9,2.2-3.9,4.9-3.6c2.8,0.3,2.8,2.4,2.6,4.5c-0.3,2.8-0.8,5.6-0.7,8.4c0.5,17-1.6,33.9-1,50.8
		c0,1.3-0.1,2.7-0.3,4c-1.6,13.1,0,26.2-1.5,39.3c-0.6,4.9,1.2,6.1,6.2,6.4c1.3,0.1,2.7,0,4,0c3.6-0.1,5.5-1.8,5.6-5.5
		c0.1-2,0.1-4,0.1-6c0-31.6,0-63.2,0.1-94.8c0-2.6-1.5-6.8,3.2-7c5.2-0.2,3.6,4.3,3.6,7.1c0.1,31.9,0.1,63.8,0.1,95.7
		c0,2-0.1,4,0.2,6c0.2,1.7,0.8,3.1,2.6,3.9c6.1,2.7,11-0.3,11.2-6.9c0-1.7,0-3.3,0-5c0-30.9,0-61.8,0-92.8c0-1.8-0.1-3.7,0.2-5.5
		c0.2-1.7,1.1-2.7,2.9-2.8c1.9,0,3.3,0.5,3.6,2.6c0.3,1.8,0.2,3.6,0.2,5.5c0,31.3,0,62.5,0,93.8c0,2.2-0.1,4.3,0.3,6.5
		c0.3,1.8,1.1,3,2.9,3.7c4.5,1.6,7.9,1.1,9.9-1.4c-0.1,0-0.2,0.1-0.2,0.1c-3.5,0.3-7.1,0.8-10.4-0.1c-2.3-0.6-1-3.8-1-5.8
		c-0.1-33.9,0-67.8-0.1-101.7c0-1.5,0.9-4-0.9-4.5c-2.5-0.7-5.4-0.8-7.9-0.1c-2.2,0.6-1,3.2-1,4.8c-0.1,34.6-0.2,69.2,0.1,103.7
		c0,4.8-2,4.8-5.6,4.8c-3.8,0.1-5.6-0.4-5.5-5c0.3-15.8,0.1-31.6,0.1-47.4c0-18.9,0-37.9,0-56.8c0-1.4,0.8-3.7-0.7-4.1
		c-2.7-0.6-5.7-0.7-8.4-0.1c-2.3,0.5-1.1,3.1-1.1,4.8c-0.1,34.4-0.2,68.8,0.1,103.2c0,4.5-1.3,6-5.6,5.3c-1-0.2-2-0.1-3,0
		c-3.6,0.5-4.2-1-4.1-4.5c1.3-34.8,2.4-69.7,3.5-104.5c0.1-2.2,0.8-5.1-3.2-4.5c-3,0.5-7-2-7.6,4c-3.4,29.4-7.1,58.7-10.8,88
		c-2.2,16.7,1.6,31.4,14.2,43.1c8.8,8.3,14.9,18.2,18.7,29.6c5.6,17,3.7,33.8-1.5,50.4c-2.4,7.5-3.6,15.1-3.4,23
		c0.3,14.3-0.1,28.6,0.2,42.9c0.1,4.5-1.2,5.4-5.5,5.4c-43.7-0.1-87.4-0.1-131.1-0.1c43.1,0.1,86.2,0.2,129.3,0.3
		C2465.2,527,2467.2,526.9,2469.3,526.9z"/>
	<path class="st2" d="M2516.5,290.9c0-1.3-0.3-2.6-0.4-4c-1.3-13.6,0.4-27.3-1.4-40.8c-0.3-2.1,0.6-3.9,3.2-4.1c2.4-0.1,4.3,0.5,5,3
		c0.3,1,0.4,2,0.5,2.9c2.9,25.4,5.8,50.9,8.8,76.3c0.8,6.9,2.4,13.8,1.9,20.8c-0.7,11-5.4,20.4-13.2,28.3
		c-11.7,11.9-18.6,26.1-20.8,42.7c-1.9,14.2,0.8,27.8,3.6,41.5c1.2,5.6,1.8,11.1,1.7,16.8c-0.1,15.5-0.1,30.9,0,46.4
		c0,3.9,0.3,5.4,2.1,5.9c3.5,0.1,6.9,0.3,10.4,0.3c12.1,0,24.1,0,36.2,0c0,0,0,0,0,0c1,0,2,0,3,0c0.5,0,1,0,1.5,0
		c5-0.3,4.7-1.7,2.8-9.3c-6.6-26.4-9.8-53.1-8.3-80.4c1.8-34.2,9.9-66.8,25.1-97.3c28.1-56.7,71.4-97.9,129.6-123.3
		c32.1-14,65.9-20.1,100.7-20.5c11.6-0.1,23.2,0.9,34.8,2.5c54.2,7.5,101,30.4,140.8,67.7c23,21.5,40.9,46.7,54.6,75
		c21.5,44.7,28.2,91.8,22.9,140.8c-1.4,13.2-4.3,26.2-7.7,39.1c-0.8,3.2-1,4.6,0,5.2c1,0,2,0,3,0.1c-2.6-0.2-2.7-1.4-1.8-4.6
		c18.3-67.1,12-131.6-21-193c-50.1-93-152.7-145.6-257.6-132.4c-51.6,6.5-97.4,26.4-136.5,60.7c-57.6,50.6-87.1,114.5-88.9,191
		c-0.6,25.2,3.1,50,10,74.2c0.6,2.1,2,4.1-2.1,4c-16.3-0.1-32.7-0.1-49,0c-2.4,0-3.1-0.9-3.1-3.2c0.1-6.5,0.1-13,0-19.4
		c-0.1-19.6,0.3-39-3.9-58.5c-6.1-28.1,0.2-53.1,21.3-74c9-9,12.3-20.9,10.7-34c-2.3-18.8-4.3-37.6-6.4-56.4
		c-1.4-12.2-2.8-24.4-4.3-36.6c-0.2-1.5,0.6-3.7-2.3-4.2c-7.6-1.4-9.2-0.2-9.1,7.4c0,1,0,2,0,3c1,33,2,66.1,2.9,99.1
		c0,0.6,0.2,1.4,0.1,2.1c0.8-1.4,1.3-3.3,1.3-5.6C2517.9,327.8,2516,309.4,2516.5,290.9z"/>
	<path class="st2" d="M3162.6,527.1c15.7,0,31.3,0,47,0c-13.6-0.1-27.1-0.3-40.7-0.5c-2.2,0-4.4,0-6.7,0c-3.5,0-5.2,0.4-5.9-0.2
		c-0.2,0-0.4,0-0.6,0C3156.9,527.1,3158.9,527.1,3162.6,527.1z"/>
	<path class="st2" d="M1400.8,527.1c3.1,0,6.1,0,9.2-0.1c0.8,0,1.5,0,2.3,0c3.6-0.4,3.9-1.9,2.7-7.1c-3.1-13.8-5.2-27.8-6.2-41.9
		c-2.3-31.1,1.6-60.9,15.9-89.1c23.8-46.7,74.2-70.9,126.5-64.5c21,2.6,39.4,11.9,55.8,25c1.3,1,2.5,2.3,4,3
		c1.3,0.6,2.2,0.9,2.9,0.7c-1.9-1.6-3.3-2.7-4.6-3.7c-28.1-23.2-60.1-32.1-96-25.9c-58.4,10-96.3,53.2-104.8,111.1
		c-4.3,29.5-1.4,58.6,5.5,87.4c0.9,3.7,0.6,4.8-3.6,4.7c-21.8-0.2-43.6-0.2-65.3,0c12.1,0.2,24.1,0.3,36.2,0.4
		C1387.8,527.1,1394.3,527.1,1400.8,527.1z"/>
	<path class="st2" d="M2554.4,527.1c1.8,0,3.3,0,4.5-0.1c-0.5,0-1,0-1.5,0C2556.4,527.1,2555.4,527.1,2554.4,527.1z"/>
	<path class="st2" d="M1261.8,3.5c8.3,3.5,15.1,8.9,20.8,15.9c6.2,7.7,11.4,16,15.9,24.7c12.4,24.7,20.2,51,26.4,77.7
		c6.3,27.1,10.6,54.5,13.8,82.1c3.3,28.1,5.6,56.2,6.1,84.4c0.7,41.8,0.8,83.7-2.6,125.5c-1.7,20.5-3.4,41-5.8,61.5
		c-1.8,15.2-3.8,30.3-6.1,45.5c-0.5,3.4-0.6,5,0.5,5.7c1,0,2,0,2.9,0c-2.5-0.6-2.5-2.4-2-5.6c2.9-17.4,5.1-34.8,7.1-52.3
		c6-52.9,8.7-105.9,8-159.1c-0.7-53.1-4.7-105.8-14.2-158.1c-6.1-33.5-13.9-66.6-28-97.8C1294.4,31.1,1283.3,9,1257.6,0
		C1257.8,2.5,1260.1,2.8,1261.8,3.5z"/>
	<path class="st2" d="M1335.6,527.1c15.2,0,30.4,0,45.6,0c-12.1-0.1-24.1-0.2-36.2-0.4c-2.9,0-5.8,0-8.6,0.1c-1.1,0-2-0.1-2.7-0.2
		c-1,0-2,0-2.9,0C1331.6,527,1333.1,527.1,1335.6,527.1z"/>
	<path class="st2" d="M1615.1,349.8c-0.1-1-0.4-2-0.7-2.9c-6.5-18.4-16.5-34.4-31.4-47.2c-12-10.3-25.4-18.3-39.9-24.4
		c-5.2-2.2-10.3-4.7-14.1-9.2c-5.8-6.6-6.8-18.1-2.2-25.6c4.9-8,14.7-11.8,23.8-9.5c4.4,1.2,8.4,3.2,12.3,5.4
		c15.5,8.6,30,18.5,43.4,30.2c4,3.5,7.8,7.3,11.8,10.8c3.6,3.2,4.9,2.7,5.9-1.9c0.5-2.4,0.7-4.9,1.1-7.4
		c3.6-22.2,13.2-40.7,32.9-52.9c19.3-12,40.8-14.7,62.9-14.2c3.7,0.1,4.6,2.8,5.2,5.7c2.5,11.3,2.8,22.9,1,34.2
		c-3.7,22.3-17,37.8-36.4,48.4c-14.4,7.9-29.9,12-45.9,14.9c-6.7,1.2-7.2,2.3-4.6,8.7c4.5,11.1,8,22.6,10.2,34.4
		c1.3,6.8,2.5,7.1,7.9,3.1c1.1-0.8,2.1-1.7,3.1-2.5c7.9-5.9,16.2-11.1,25.1-15.4c20-9.6,41.1-10.7,62.5-7.8
		c31.6,4.4,58.5,18.1,78.9,42.8c26,31.6,33.1,68.9,30.6,108.6c-1,15.3-4,30.3-7.5,45.2c-0.7,2.9-0.7,4.3,0.5,5c0.4,0,0.8,0,1.2,0
		c-1.5-0.5-1-1.8-0.5-3.7c8.1-31,11.6-62.3,5.3-94.2c-7.1-36.3-24.3-66.4-56.2-86.4c-40.4-25.4-98.2-32.2-144,7.1
		c-1.3,1.1-2.2,2.9-4.4,2.9c-2.3-14.4-6.3-28.2-12-41.5c-1.3-2.9-1.5-4,2.4-4.6c15.9-2.3,31.3-6.4,45.7-13.7
		c37.2-18.9,47.3-53.3,38-89.4c-0.7-2.5-1.7-3.4-4.4-3.5c-12.4-0.1-24.6,0.4-36.7,3.1c-30.2,6.8-51,24-59.8,54.3
		c-2.1,7.1-3,14.4-4.5,22.3c-2.3-1.8-3.9-4.2-5.8-6.1c-17.7-17.1-37.5-31.2-59.8-41.8c-10.9-5.2-23-2.1-29.6,7.6
		c-6.6,9.5-5.1,22,3.4,30.4c4.2,4.1,9.6,5.9,14.7,8.2c22.3,9.9,41.8,23.3,55.8,43.8c6.4,9.4,11.3,19.6,14.6,31.7
		C1615,352.3,1615.2,351.3,1615.1,349.8z"/>
	<path class="st3" d="M1247.9,0.5c2.9-0.2,5.8,0.6,8.6-0.5c-3,0-6,0-9,0C1247.8,0.2,1247.9,0.3,1247.9,0.5z"/>
	<path class="st3" d="M1256.6,0c-2.8,1.1-5.8,0.3-8.6,0.5c0,0,0,0.1-0.1,0.1c-0.1,0.2-0.3,0.3-0.4,0.3C1250.5,0.6,1253.7,2,1256.6,0
		z"/>
	<path class="st3" d="M1247.9,0.5c0-0.2-0.1-0.3-0.4-0.5c0,0.2,0,0.3,0,0.5c0,0,0.1,0,0.1,0C1247.7,0.5,1247.8,0.5,1247.9,0.5z"/>
	<path class="st3" d="M1247.9,0.5c-0.1,0-0.2,0-0.3,0c0,0-0.1,0-0.1,0c0,0.1,0,0.3-0.1,0.4c0.1,0,0.3-0.1,0.4-0.3
		C1247.9,0.6,1247.9,0.5,1247.9,0.5z"/>
	<path class="st2" d="M826.2,157.4c2.7,0.1,5.3,0.2,8,0c2.6-0.2,3.5,0.8,3.4,3.4c-0.2,5.5-0.1,11,0,16.4c0,9.2,3,12.2,12.2,12.2
		c26.6,0,53.3,0,79.9,0c14,0,28,0,42,0c7.5,0,10.9-3.5,11-11c0-3.8,0-7.6,0-11.5c0-9.5,0-9.5,9.5-9.6c7.7-0.1,11.3-3.6,11.3-11.3
		c0-11.1,0-22.3,0-33.4c0-9.6-2.9-12.6-12.5-12.6c-27,0-53.9,0-80.9,0c-27.3,0-54.6,0-81.9,0c-8.4,0-11.5,3.1-11.5,11.4
		c0,12,0,23.9,0,35.9C816.8,153.5,820.2,157.1,826.2,157.4z"/>
	<path class="st2" d="M574,235.3c2.1,10.2,9.6,15.1,19.8,13.3c5.3-1,10.2-3.2,14.5-6.3c19.3-13.6,31.4-32.2,37.5-54.7
		c2.3-8.4,3.2-17.1-0.6-25.4c-1.3-2.8-1.1-4.6,0.5-7.1c6.6-10,12.9-20.1,19.4-30.2c2-3.1,2.5-6-1-8.2c-3.5-2.2-5.9-0.3-7.8,2.8
		c-0.4,0.7-0.9,1.4-1.3,2.1c-6.1,9.5-12.2,19-18.2,28.6c-1.4,2.2-2.7,3.2-5.5,3c-4.4-0.3-8.5,1.1-12.5,3
		c-9.7,4.6-17.4,11.6-24.1,19.8c-12.2,15-20.6,31.7-21.8,51.6C573.3,230,573.4,232.7,574,235.3z"/>
	<path class="st2" d="M684.3,385.9c-9.5-0.7-17.1,3.7-24.1,9.3c-16,12.7-26.6,29-32.6,48.4c-2.5,8-3.8,16.2-1.9,24.5
		c2,8.8,7.7,13.5,17.8,13.5c4.9-0.2,10.9-2.8,16.2-6.5c19.7-13.9,32-32.9,37.9-56.1c2.2-8.8,2.9-17.8-1.9-26.2
		c-1.1-2,0.4-3.1,1.2-4.4c6.4-10.1,12.8-20.2,19.3-30.2c2-3,3.3-6.3-0.4-8.7c-3.9-2.6-6.4-0.1-8.4,3.2
		c-6.4,10.1-12.8,20.2-19.3,30.3C687.4,384.3,686.8,386.1,684.3,385.9z"/>
	<path class="st2" d="M490.1,291.2c4.9,9.9,12.2,17.7,20.9,24.4c14.8,11.5,31.2,19.6,50.4,20.5c1.2,0,2.3,0.1,3.5,0
		c12.1-0.7,18.9-7.6,18-18.5c-0.5-6-3-11.2-6.3-16c-12.4-17.9-29.4-29.5-49.9-36.3c-10.9-3.6-22-5.6-32.9,0.2
		c-2.1,1.1-3.1-0.6-4.4-1.4c-10-6.2-20-12.5-29.9-18.9c-3.2-2.1-6.6-3.6-9.1,0.3c-2.5,3.8,0.2,6.3,3.5,8.4
		c10,6.2,19.9,12.7,29.9,18.9c2.2,1.4,3.4,2.7,3.1,5.5C486.4,282.9,488,287.2,490.1,291.2z"/>
	<path class="st2" d="M664.4,308.2c-4.6-0.3-8.8,1.6-12.8,3.7c-9.9,5.2-17.8,12.8-24.4,21.7c-10.9,14.4-18.6,30.2-19.4,48.6
		c0,1.7-0.1,3.3,0,5c1,10.9,7.3,17,17.1,16.8c6.8-0.1,12.6-3,17.9-6.7c18.7-13.3,30.7-31.5,36.9-53.5c2.7-9.6,3.7-19.3-1.3-28.6
		c-1.1-2.1,0.4-3.1,1.2-4.4c6.4-10.1,12.8-20.2,19.3-30.2c2-3.1,3.3-6.3-0.3-8.7c-3.8-2.6-6.4-0.2-8.5,3.2
		c-6.1,9.7-12.4,19.3-18.3,29.1C670,307.1,668.1,308.4,664.4,308.2z"/>
	<path class="st2" d="M515.9,111.7c0.1,1.8,0.2,3.8,0.4,5.8c1.7,19.5,6.8,37.9,19.8,53.2c5.5,6.4,12,11.6,21.1,9.7
		c8.7-1.9,12.6-9.2,14.5-16.9c6.9-28.9,0.9-55.2-17.1-78.8c-3.2-4.3-7.5-7.7-12.8-9.2c-2.8-0.8-3.5-2.4-4-4.8
		c-2.5-11.5-5.1-23-7.6-34.5c-0.8-3.8-2.2-7.1-6.8-6c-4.7,1.1-4,5-3.2,8.5c2.1,9.4,4.1,18.8,6.4,28.1c1.4,5.7,1.8,10.2-2.9,15.5
		C516.7,90.3,516.6,101.2,515.9,111.7z"/>
	<path class="st2" d="M436.2,176.1c10.1,6.4,20.2,12.9,30.3,19.2c1.9,1.2,3.4,2.2,3.2,5c-0.6,6,1.8,11.4,4.7,16.5
		c5.3,9.1,12.5,16.4,20.8,22.6c14.2,10.6,29.7,18.2,47.8,19c2,0,4,0.2,6,0c12.7-1.1,18.9-9.9,15.7-22.2c-1.3-5.1-3.7-9.6-6.8-13.8
		c-12.9-17.4-30.1-28.9-50.7-35.1c-9.5-2.9-19.3-4.5-28.8-0.2c-2.9,1.3-4.7,0.9-7.1-0.6c-10-6.5-20.1-12.9-30.3-19.3
		c-4.4-2.7-8.8-1-9.1,3.3C432,173.3,434.1,174.7,436.2,176.1z"/>
	<path class="st2" d="M470.7,331.4c8.7,5.4,17.3,11.1,26.1,16.5c4.3,2.6,8.4,4.8,7.5,11.2c-0.5,3.3,1.4,6.7,3,9.9
		c4,7.8,9.5,14.4,16,20.1c15.9,13.9,33.8,23.4,55.5,24.9c2.1-0.3,4.4-0.4,6.7-0.9c12-2.4,17-10.6,13.7-22.4
		c-1.4-4.8-3.6-9.3-6.6-13.3c-13.9-18.4-32.2-30.5-54.6-36.2c-8.9-2.3-18.1-3-26.7,1.6c-2.2,1.2-3.4-0.3-4.9-1.3
		c-10.1-6.4-20.2-12.8-30.3-19.2c-3.1-2-6.4-2.9-8.6,0.8C465.3,326.9,467.5,329.4,470.7,331.4z"/>
	<path class="st2" d="M648.9,230.7c-5.4-0.2-10.4,1.7-15.2,4.3c-8.6,4.7-15.7,11.2-21.8,18.7c-11.8,14.8-20.2,31.1-21.5,50.4
		c0.2,3.2,0.1,6.3,0.9,9.4c2.6,9.7,9,14,18.8,12.7c5.6-0.8,10.5-3.1,15-6.3c19.1-13.5,31.2-31.9,37.5-54.1c2.7-9.4,3.7-19-1.4-28
		c-1.2-2.2,0.3-3.4,1.2-4.9c6.3-10,12.6-19.9,19-29.8c2-3.1,4-6.4-0.2-9c-3.8-2.3-6.1,0.5-7.9,3.5c-0.5,0.9-1.1,1.7-1.6,2.5
		c-5.8,9.1-11.6,18.2-17.3,27.3C653,229.6,651.8,230.8,648.9,230.7z"/>
	<path class="st2" d="M524.8,446c5.4,11.1,13.8,19.5,23.5,26.6c14.2,10.4,29.6,17.7,47.9,18.7c2-0.2,4.3-0.3,6.6-0.7
		c11.1-1.8,16.5-9.9,14.1-20.9c-1.3-6.1-4.3-11.5-8.1-16.3c-13.5-17.1-31-28.5-52-34.2c-8.6-2.3-17.5-3.5-25.9,0.4
		c-3.3,1.5-5.4,0.9-8.1-0.8c-9.9-6.4-19.9-12.7-29.9-19c-4.2-2.7-8.5-1.2-8.8,2.9c-0.2,2.9,1.9,4.4,4.1,5.8
		c10.1,6.4,20.2,12.9,30.3,19.2c2.2,1.3,3.5,2.6,3.2,5.4C521.2,437.7,522.8,441.9,524.8,446z"/>
</g>
</svg>
