<svg xmlns="http://www.w3.org/2000/svg" width="239" height="46" viewBox="0 0 239 46">
  <g id="Groupe_1916" data-name="Groupe 1916" transform="translate(0 0.425)">
    <g id="Groupe_1518" data-name="Groupe 1518" transform="translate(0 0)">
      <rect id="Rectangle_553" data-name="Rectangle 553" width="239" height="46" transform="translate(0 -0.425)" fill="#292929"/>
      <text id="Hashtags" transform="translate(46 26.575)" fill="#fff" font-size="14" font-family="Titillium-Semibold, Titillium" font-weight="600"><tspan x="0" y="0">Hashtags</tspan></text>
      <g id="_" data-name=" " transform="translate(14.356 12.615)" style="mix-blend-mode: normal;isolation: isolate">
        <g id="Groupe_1067" data-name="Groupe 1067" transform="translate(0 0)" style="mix-blend-mode: normal;isolation: isolate">
          <path id="Tracé_253" data-name="Tracé 253" d="M2.754,15.288H1.461A1.451,1.451,0,0,1,0,13.827a1.469,1.469,0,0,1,1.461-1.461h1.8L4.1,7.476H2.473a1.461,1.461,0,0,1,0-2.923H4.609l.562-3.344A1.432,1.432,0,0,1,6.632,0,1.5,1.5,0,0,1,8.094,1.714L7.588,4.553H12l.562-3.344A1.441,1.441,0,0,1,14.052,0a1.481,1.481,0,0,1,1.433,1.714l-.478,2.838H16.3a1.469,1.469,0,0,1,1.461,1.461A1.488,1.488,0,0,1,16.3,7.476H14.5l-.843,4.89h1.6a1.451,1.451,0,0,1,1.461,1.461,1.469,1.469,0,0,1-1.461,1.461H13.152l-.59,3.457A1.457,1.457,0,0,1,11.1,19.953,1.486,1.486,0,0,1,9.64,18.239l.534-2.951H5.761l-.59,3.457a1.475,1.475,0,0,1-1.49,1.208,1.444,1.444,0,0,1-1.433-1.714Zm7.9-2.923.843-4.89H7.11l-.843,4.89Z" fill="#fff"/>
        </g>
      </g>
    </g>
  </g>
</svg>
