<svg xmlns="http://www.w3.org/2000/svg" width="24.298" height="24.298" viewBox="0 0 24.298 24.298">
  <path id="Tracé_3909" data-name="Tracé 3909" d="M25.313,2.939a4.034,4.034,0,0,1,0,5.7l-14.9,14.9a5.043,5.043,0,0,1-2.343,1.326L3.45,26.024A1.009,1.009,0,0,1,2.227,24.8L3.383,20.18a5.043,5.043,0,0,1,1.326-2.343l14.9-14.9A4.034,4.034,0,0,1,25.313,2.939ZM18.181,7.217,6.135,19.264a3.026,3.026,0,0,0-.8,1.406l-.748,2.99,2.99-.748a3.026,3.026,0,0,0,1.406-.8L21.033,10.07Zm2.853-2.852L19.607,5.791l2.852,2.852,1.427-1.426a2.017,2.017,0,0,0-2.852-2.853Z" transform="translate(-2.196 -1.757)" fill="#e63429"/>
</svg>
