<svg xmlns="http://www.w3.org/2000/svg" width="21.966" height="26.367" viewBox="0 0 21.966 26.367">
  <g id="Groupe_1914" data-name="Groupe 1914" transform="translate(-1512.104 -100.526)">
    <g id="Groupe_1398" data-name="Groupe 1398" transform="translate(1512.104 100.526)">
      <g id="Groupe_1397" data-name="Groupe 1397" transform="translate(0)">
        <path id="Tracé_507" data-name="Tracé 507" d="M27.27,34.384H14.914A2.909,2.909,0,0,1,12,31.48V13.109a.909.909,0,0,1,.909-.909H29.275a.909.909,0,0,1,.909.909V31.48A2.909,2.909,0,0,1,27.27,34.384ZM13.818,14.018V31.48a1.091,1.091,0,0,0,1.1,1.086H27.27a1.091,1.091,0,0,0,1.1-1.086V14.018Z" transform="translate(-10.109 -8.018)" fill="#e63429"/>
        <path id="Tracé_508" data-name="Tracé 508" d="M28.9,14.018H8.749a.909.909,0,1,1,0-1.818H28.9a.909.909,0,1,1,0,1.818Z" transform="translate(-7.84 -8.018)" fill="#e63429"/>
        <path id="Tracé_509" data-name="Tracé 509" d="M23.239,9a.909.909,0,0,1-.909-.909V5.4a2.409,2.409,0,0,1,2.4-2.4h1.991a.909.909,0,1,1,0,1.818H24.735a.586.586,0,0,0-.586.586V8.092A.909.909,0,0,1,23.239,9Z" transform="translate(-15.743 -3)" fill="#e63429"/>
        <path id="Tracé_510" data-name="Tracé 510" d="M30.968,9a.909.909,0,0,1-.909-.909V5.4a.586.586,0,0,0-.586-.586H27.481a.909.909,0,1,1,0-1.818h1.991a2.409,2.409,0,0,1,2.4,2.4V8.092A.909.909,0,0,1,30.968,9Zm-.632,13.038a.909.909,0,0,1-.641-.264L23.98,16.061a.91.91,0,1,1,1.287-1.287l5.714,5.714a.909.909,0,0,1-.646,1.55Z" transform="translate(-16.498 -3)" fill="#e63429"/>
        <path id="Tracé_511" data-name="Tracé 511" d="M24.628,35.845a.909.909,0,0,1-.646-1.55L29.7,28.58a.91.91,0,1,1,1.287,1.287l-5.714,5.714A.909.909,0,0,1,24.628,35.845Z" transform="translate(-16.5 -16.806)" fill="#e63429"/>
      </g>
    </g>
  </g>
</svg>
