<svg xmlns="http://www.w3.org/2000/svg" width="297.672" height="89.307" viewBox="0 0 297.672 89.307"><g transform="matrix(0.993, -0.122, 0.122, 0.993, -1.308, 37.011)"><path d="M0,46.012a1,1,0,0,1-.9-.562,1,1,0,0,1,.461-1.337A347.354,347.354,0,0,1,45.679,25.848,481.8,481.8,0,0,1,94.324,13.206,690.743,690.743,0,0,1,188.512.838c29.882-1.97,55.773-2,72.23-1.685C278.581-.5,289.5.323,289.61.331a1,1,0,0,1-.152,1.994c-.108-.008-10.99-.828-28.783-1.173-16.42-.318-42.251-.284-72.062,1.683C135.993,6.307,60.634,16.6.438,45.911A1,1,0,0,1,0,46.012Z" transform="translate(5.042 0)" fill="#c7c7c7"/><path d="M13.437,32.687q-2.207,0-4.048-.094c-4.511-.23-7.231-.853-8.56-1.96-1.4-1.164-1.984-3.524-1.794-7.216A59.982,59.982,0,0,1,.7,13.166C2.334,6.241,4.6-.266,4.626-.33A1,1,0,0,1,5.9-.944,1,1,0,0,1,6.514.33c-.022.064-2.261,6.484-3.87,13.308-2.829,12-1.317,14.807-.535,15.458.536.446,2.207,1.235,7.378,1.5a120.466,120.466,0,0,0,12.624-.191c8.684-.5,16.88-1.522,16.962-1.532a1,1,0,0,1,.248,1.985c-.082.01-8.336,1.035-17.084,1.543C18.955,32.592,16.012,32.687,13.437,32.687Z" transform="translate(0 19.879)" fill="#c7c7c7"/></g></svg>