<?xml version="1.0" encoding="UTF-8"?>
<svg xmlns="http://www.w3.org/2000/svg" xmlns:xlink="http://www.w3.org/1999/xlink" width="25px" height="25px" viewBox="0 0 25 25" version="1.1">
<g id="surface1">
<path style=" stroke:none;fill-rule:nonzero;fill:rgb(86.666667%,86.666667%,86.666667%);fill-opacity:1;" d="M 12.425781 0.0351562 C 5.578125 0.078125 0.0546875 5.652344 0.0742188 12.5 C 0.09375 19.347656 5.652344 24.890625 12.5 24.890625 C 19.347656 24.890625 24.90625 19.347656 24.925781 12.5 C 24.945312 5.652344 19.421875 0.078125 12.574219 0.0351562 Z M 12.425781 6.359375 C 15.5 6.402344 17.960938 8.914062 17.941406 11.984375 C 17.921875 15.058594 15.425781 17.535156 12.351562 17.535156 C 9.28125 17.535156 6.785156 15.058594 6.765625 11.984375 C 6.746094 8.914062 9.207031 6.402344 12.28125 6.359375 Z M 4.191406 21.101562 C 5.515625 19.386719 7.15625 18.53125 9.117188 18.53125 L 15.882812 18.53125 C 17.84375 18.53125 19.484375 19.386719 20.808594 21.101562 C 16.152344 25.527344 8.847656 25.527344 4.191406 21.101562 "/>
</g>
</svg>
