<svg xmlns="http://www.w3.org/2000/svg" xmlns:xlink="http://www.w3.org/1999/xlink" width="1603.471" height="329.352" viewBox="0 0 1603.471 329.352">
  <defs>
    <linearGradient id="linear-gradient" x1="0.023" y1="0.5" x2="1" y2="0.5" gradientUnits="objectBoundingBox">
      <stop offset="0" stop-color="#e40f12"/>
      <stop offset="1" stop-color="#ee6209"/>
    </linearGradient>
    <linearGradient id="linear-gradient-2" x1="0.023" y1="0.5" x2="1" y2="0.5" gradientUnits="objectBoundingBox">
      <stop offset="0" stop-color="#ee6209"/>
      <stop offset="1" stop-color="#f39204"/>
    </linearGradient>
  </defs>
  <g id="Groupe_1996" data-name="Groupe 1996" transform="translate(-229.5 -594.064)">
    <path id="Tracé_706" data-name="Tracé 706" d="M823.9,32.785,800.713,0H5.984L29.156,32.785,5.984,65.555H800.713Z" transform="translate(368.447 594.064)" fill="url(#linear-gradient)"/>
    <path id="Tracé_733" data-name="Tracé 733" d="M406.059,32.785,382.871,0H5.984L29.156,32.785,5.984,65.555H382.871Z" transform="translate(1256.107 594.064)" fill="url(#linear-gradient-2)"/>
    <path id="Tracé_708" data-name="Tracé 708" d="M111.419,0H39.46L62.648,32.785,39.46,65.555h71.959l23.188-32.77Z" transform="translate(253.322 594.066)" fill="#e40e13"/>
    <text id="_0" data-name="0" transform="translate(330.547 635.457)" fill="#fff" font-size="36" font-family="Raleway-SemiBold, Raleway" font-weight="600"><tspan x="0" y="0">0</tspan></text>
    <text id="_1" data-name="1" transform="translate(645.945 637.457)" fill="#fff" font-size="39" font-family="Raleway-SemiBold, Raleway" font-weight="600"><tspan x="0" y="0">1</tspan></text>
    <path id="Tracé_710" data-name="Tracé 710" d="M562.643,0H490.7l23.172,32.785L490.7,65.555h71.943l23.188-32.77Z" transform="translate(688.551 594.066)" fill="#ee6209"/>
    <text id="_2" data-name="2" transform="translate(1219.207 638.457)" fill="#fff" font-size="39" font-family="Raleway-SemiBold, Raleway" font-weight="600"><tspan x="0" y="0">2</tspan></text>
    <path id="Tracé_712" data-name="Tracé 712" d="M788.089,0H716.13l23.188,32.785L716.13,65.555h71.959l23.188-32.77Z" transform="translate(932.074 594.066)" fill="#f39204"/>
    <text id="_3" data-name="3" transform="translate(1688.16 636.313)" fill="#fff" font-size="39" font-family="Raleway-SemiBold, Raleway" font-weight="600"><tspan x="0" y="0">3</tspan></text>
    <path id="Union_6" data-name="Union 6" d="M45033.766,21692.92c59.52,0,107.766,46.074,107.766,102.91s-48.246,102.91-107.766,102.91S44926,21852.666,44926,21795.83,44974.25,21692.92,45033.766,21692.92Z" transform="translate(-44695 -20976.824)" fill="#fff"/>
    <path id="Union_6_-_Contour" data-name="Union 6 - Contour" d="M45033.766,21691.42a114.986,114.986,0,0,1,22.008,2.119,112.326,112.326,0,0,1,20.5,6.078,110.875,110.875,0,0,1,18.555,9.617,109.136,109.136,0,0,1,16.172,12.742,106.361,106.361,0,0,1,13.348,15.449,103.094,103.094,0,0,1,10.082,17.74,100.344,100.344,0,0,1,0,81.328,103.094,103.094,0,0,1-10.082,17.74,106.361,106.361,0,0,1-13.348,15.449,109.136,109.136,0,0,1-16.172,12.742,110.875,110.875,0,0,1-18.555,9.617,112.326,112.326,0,0,1-20.5,6.078,115.318,115.318,0,0,1-44.012,0,112.143,112.143,0,0,1-20.5-6.078,110.912,110.912,0,0,1-18.559-9.617,109.136,109.136,0,0,1-16.172-12.742,106.361,106.361,0,0,1-13.348-15.449,103.094,103.094,0,0,1-10.082-17.74,100.344,100.344,0,0,1,0-81.328,103.094,103.094,0,0,1,10.082-17.74,106.361,106.361,0,0,1,13.348-15.449,109.136,109.136,0,0,1,16.172-12.742,110.912,110.912,0,0,1,18.559-9.617,112.143,112.143,0,0,1,20.5-6.078A114.945,114.945,0,0,1,45033.766,21691.42Zm0,205.82c58.594,0,106.266-45.492,106.266-101.41s-47.672-101.41-106.266-101.41-106.266,45.492-106.266,101.41S44975.172,21897.24,45033.766,21897.24Z" transform="translate(-44695 -20976.824)" fill="#e63429"/>
    <g id="Groupe_1750" data-name="Groupe 1750" transform="translate(99 155.066)">
      <path id="Tracé_713" data-name="Tracé 713" d="M523.121,104.072,493.2,52.14H295.17V155.98H493.2Z" transform="translate(1022.172 681.276) rotate(180)" fill="#ea3b0e"/>
      <text id="Sélection_des_tweets_à_partir_des_proposés_par_l_équipe_Cocktail" data-name="Sélection des tweets  à partir des # proposés  par l’équipe Cocktail" transform="translate(709.219 552.995)" fill="#fff" font-size="18" font-family="TitilliumWeb-Regular, Titillium Web"><tspan x="-160.992" y="0">Sélection des tweets </tspan><tspan x="-176.778" y="27">à partir des # p</tspan><tspan y="27" letter-spacing="-0.01em">r</tspan><tspan y="27">oposés </tspan><tspan x="-149.382" y="54">par l</tspan><tspan y="54" letter-spacing="-0.02em">’</tspan><tspan y="54">équipe </tspan><tspan y="54" letter-spacing="-0.01em">C</tspan><tspan y="54">ocktail</tspan></text>
    </g>
    <g id="Groupe_1748" data-name="Groupe 1748" transform="translate(99 183.066)">
      <path id="Tracé_734" data-name="Tracé 734" d="M515.121,75.653,493.2,52.14H295.17V99.155H493.2Z" transform="translate(1022.172 759.292) rotate(180)" fill="#ea3b0e"/>
      <text id="Sélection_de_la_période" data-name="Sélection de la période" transform="translate(709.219 687.835)" fill="#fff" font-size="18" font-family="TitilliumWeb-Regular, Titillium Web"><tspan x="-169.902" y="0">Sélection de la période</tspan></text>
    </g>
    <text id="La_sélection_des_discours_agroalimentaires_par_les_experts_Cocktail" data-name="La sélection des discours agroalimentaires par les experts  Cocktail" transform="translate(247.225 744.352)" font-size="20" font-family="TitilliumWeb-SemiBold, Titillium Web" font-weight="600"><tspan x="23.826" y="23">La sélection des </tspan><tspan x="55.866" y="54" fill="#e63429">discours </tspan><tspan x="19.246" y="85" fill="#e63429">agroalimentaires</tspan><tspan x="28.966" y="116">par les experts </tspan><tspan x="58.116" y="147">Cocktail</tspan></text>
    <rect id="Rectangle_740" data-name="Rectangle 740" width="6.231" height="64.474" transform="translate(1218.887 659.063)" fill="#ee6209"/>
    <ellipse id="Ellipse_111" data-name="Ellipse 111" cx="107.766" cy="102.91" rx="107.766" ry="102.91" transform="translate(1113.438 715.537)" fill="#fff"/>
    <path id="Ellipse_111_-_Contour" data-name="Ellipse 111 - Contour" d="M107.766-1.5A115.012,115.012,0,0,1,129.772.619a112.465,112.465,0,0,1,20.5,6.078,110.975,110.975,0,0,1,18.557,9.619A109.132,109.132,0,0,1,185,29.057a106.351,106.351,0,0,1,13.348,15.449,103.057,103.057,0,0,1,10.083,17.74,100.355,100.355,0,0,1,0,81.329,103.057,103.057,0,0,1-10.083,17.74A106.351,106.351,0,0,1,185,176.763a109.132,109.132,0,0,1-16.172,12.742,110.975,110.975,0,0,1-18.557,9.619,112.465,112.465,0,0,1-20.5,6.078,115.351,115.351,0,0,1-44.013,0,112.465,112.465,0,0,1-20.5-6.078A110.976,110.976,0,0,1,46.7,189.505a109.131,109.131,0,0,1-16.172-12.742A106.351,106.351,0,0,1,17.18,161.315,103.057,103.057,0,0,1,7.1,143.575a100.355,100.355,0,0,1,0-81.329A103.057,103.057,0,0,1,17.18,44.506,106.351,106.351,0,0,1,30.528,29.057,109.131,109.131,0,0,1,46.7,16.315,110.976,110.976,0,0,1,65.257,6.7,112.465,112.465,0,0,1,85.76.619,115.012,115.012,0,0,1,107.766-1.5Zm0,205.82c58.6,0,106.266-45.492,106.266-101.41S166.361,1.5,107.766,1.5,1.5,46.992,1.5,102.91,49.171,204.32,107.766,204.32Z" transform="translate(1113.438 715.537)" fill="#ee6209"/>
    <rect id="Rectangle_741" data-name="Rectangle 741" width="6.231" height="64.474" transform="translate(1693.418 659.32)" fill="#f39204"/>
    <ellipse id="Ellipse_112" data-name="Ellipse 112" cx="107.766" cy="102.91" rx="107.766" ry="102.91" transform="translate(1587.969 715.795)" fill="#fff"/>
    <path id="Ellipse_112_-_Contour" data-name="Ellipse 112 - Contour" d="M107.766-1.5A115.012,115.012,0,0,1,129.772.619a112.465,112.465,0,0,1,20.5,6.078,110.975,110.975,0,0,1,18.557,9.619A109.132,109.132,0,0,1,185,29.057a106.351,106.351,0,0,1,13.348,15.449,103.057,103.057,0,0,1,10.083,17.74,100.355,100.355,0,0,1,0,81.329,103.057,103.057,0,0,1-10.083,17.74A106.351,106.351,0,0,1,185,176.763a109.132,109.132,0,0,1-16.172,12.742,110.975,110.975,0,0,1-18.557,9.619,112.465,112.465,0,0,1-20.5,6.078,115.351,115.351,0,0,1-44.013,0,112.465,112.465,0,0,1-20.5-6.078A110.976,110.976,0,0,1,46.7,189.505a109.131,109.131,0,0,1-16.172-12.742A106.351,106.351,0,0,1,17.18,161.315,103.057,103.057,0,0,1,7.1,143.575a100.355,100.355,0,0,1,0-81.329A103.057,103.057,0,0,1,17.18,44.506,106.351,106.351,0,0,1,30.528,29.057,109.131,109.131,0,0,1,46.7,16.315,110.976,110.976,0,0,1,65.257,6.7,112.465,112.465,0,0,1,85.76.619,115.012,115.012,0,0,1,107.766-1.5Zm0,205.82c58.6,0,106.266-45.492,106.266-101.41S166.361,1.5,107.766,1.5,1.5,46.992,1.5,102.91,49.171,204.32,107.766,204.32Z" transform="translate(1587.969 715.795)" fill="#f39204"/>
    <text id="Lancement_de_l_analyse" data-name="Lancement  de l'analyse" transform="translate(1222.32 807.203)" fill="#ee6209" font-size="20" font-family="TitilliumWeb-SemiBold, Titillium Web" font-weight="600"><tspan fill="#000"><tspan x="-49.43" y="0">Lancement </tspan></tspan><tspan x="-50.21" y="31" fill="#000">de </tspan><tspan y="31" fill="#ee6209">l'analyse</tspan></text>
    <text id="Les_résultats_d_analyse" data-name="Les résultats d'analyse" transform="translate(1695.971 771.203)" font-size="20" font-family="TitilliumWeb-SemiBold, Titillium Web" font-weight="600"><tspan x="-54.94" y="0">Les </tspan><tspan y="0" fill="#f39204">résultats</tspan><tspan x="-40.4" y="31">d'analyse</tspan></text>
    <text id="Composez_votre_corpus_d_étude" data-name="Composez votre corpus d'étude" transform="translate(800.834 632.008)" fill="#fff" font-size="18" font-family="TitilliumWeb-SemiBold, Titillium Web" font-weight="600"><tspan x="-120.447" y="0">Composez votre corpus d'étude</tspan></text>
    <text id="Lancement_de_l_analyse_Cocktail" data-name="Lancement de l'analyse Cocktail" transform="translate(1459.064 632.008)" fill="#fff" font-size="18" font-family="TitilliumWeb-SemiBold, Titillium Web" font-weight="600"><tspan x="-121.941" y="0">Lancement de l'analyse Cocktail</tspan></text>
    <g id="Groupe_1746" data-name="Groupe 1746" transform="translate(387.971 155.066)">
      <rect id="Rectangle_742" data-name="Rectangle 742" width="192" height="30" rx="5" transform="translate(1212 664.537)" fill="#f39204"/>
      <text id="fréquence_des_tweets" data-name="fréquence des tweets" transform="translate(1308 685.537)" fill="#fff" font-size="18" font-family="TitilliumWeb-SemiBold, Titillium Web" font-weight="600"><tspan x="-82.926" y="0">fréquence des tweets</tspan></text>
    </g>
    <g id="Groupe_1747" data-name="Groupe 1747" transform="translate(387.971 190.799)">
      <rect id="Rectangle_742-2" data-name="Rectangle 742" width="274" height="30" rx="5" transform="translate(1171 664.537)" fill="#f39204"/>
      <text id="fréquence_basique_des_hashtags" data-name="fréquence basique des hashtags" transform="translate(1308 685.537)" fill="#fff" font-size="18" font-family="TitilliumWeb-SemiBold, Titillium Web" font-weight="600"><tspan x="-123.579" y="0">fréquence basique des hashtags</tspan></text>
    </g>
    <rect id="Rectangle_743" data-name="Rectangle 743" width="6.231" height="245.727" transform="translate(822.887 659.32)" fill="#ea3b0e"/>
    <ellipse id="Ellipse_113" data-name="Ellipse 113" cx="8.782" cy="8.981" rx="8.782" ry="8.981" transform="translate(817.219 903.066)" fill="#ea3b0e"/>
    <g id="Groupe_1749" data-name="Groupe 1749" transform="translate(99 192.066)">
      <path id="Tracé_735" data-name="Tracé 735" d="M220.951,40.157,198.026,80.332H0V0H198.026Z" transform="translate(727 579.805)" fill="#ea3b0e"/>
      <text id="Sélection_des_tweets_à_partir_de_vos_" data-name="Sélection des tweets  à partir de vos #" transform="translate(744.785 610.285)" fill="#fff" font-size="18" font-family="TitilliumWeb-Regular, Titillium Web"><tspan x="0" y="0">Sélection des tweets </tspan><tspan x="0" y="27">à partir de vos #</tspan></text>
    </g>
    <rect id="Rectangle_744" data-name="Rectangle 744" width="6.231" height="56.475" transform="translate(336.449 659.621)" fill="#e63429"/>
  </g>
</svg>