<svg xmlns="http://www.w3.org/2000/svg" width="18.014" height="14.668" viewBox="0 0 18.014 14.668">
  <path id="iconfinder_icon-social-twitter_211920" d="M36.465,65.578a6.788,6.788,0,0,1-1.928.531,3.369,3.369,0,0,0,1.477-1.859,6.672,6.672,0,0,1-2.133.815,3.356,3.356,0,0,0-5.809,2.3,3.287,3.287,0,0,0,.087.766,9.515,9.515,0,0,1-6.922-3.513,3.367,3.367,0,0,0,1.04,4.487,3.277,3.277,0,0,1-1.522-.42v.042a3.36,3.36,0,0,0,2.695,3.294,3.38,3.38,0,0,1-.884.118,3.168,3.168,0,0,1-.631-.062,3.363,3.363,0,0,0,3.138,2.334A6.732,6.732,0,0,1,20.9,75.846a6.805,6.805,0,0,1-.8-.049,9.537,9.537,0,0,0,14.7-8.045c0-.146,0-.291-.01-.433A6.892,6.892,0,0,0,36.465,65.578Z" transform="translate(-19.828 -63.149)" fill="#8f8f8f" stroke="rgba(0,0,0,0)" stroke-width="1"/>
</svg>
