<svg id="Groupe_1381" data-name="Groupe 1381" xmlns="http://www.w3.org/2000/svg" xmlns:xlink="http://www.w3.org/1999/xlink" width="270.402" height="84.919" viewBox="0 0 270.402 84.919">
  <defs>
    <clipPath id="clip-path">
      <rect id="Rectangle_524" data-name="Rectangle 524" width="270.402" height="84.919" fill="none"/>
    </clipPath>
  </defs>
  <path id="Tracé_464" data-name="Tracé 464" d="M281.805,0V62.622h9.81V53.187l5.629-6.972,9.167,16.407h11.3l-13.75-24.673,13.79-17.075H304.924L291.616,37.365V0Z" transform="translate(-155.092 0)" fill="#2d2926"/>
  <path id="Tracé_465" data-name="Tracé 465" d="M395.947,40.565h-7.8V72.127h-9.81V40.565h-5.95V30.379h5.95V17.27h9.81V30.379h7.8Z" transform="translate(-204.944 -9.505)" fill="#2d2926"/>
  <g id="Groupe_1382" data-name="Groupe 1382">
    <g id="Groupe_1381-2" data-name="Groupe 1381" clip-path="url(#clip-path)">
      <path id="Tracé_466" data-name="Tracé 466" d="M451.931,78.015A9.3,9.3,0,0,0,457.52,76.3a10.711,10.711,0,0,0,3.6-4.572,13.459,13.459,0,0,0,.985-6.325,13.774,13.774,0,0,0-1.849-5.907,12.593,12.593,0,0,0-4.021-4.237,10.332,10.332,0,0,0-11.2.125,11.316,11.316,0,0,0-3.88,4.572,12.23,12.23,0,0,0-1.086,6.366,13.4,13.4,0,0,0,6.292,10.1,10.482,10.482,0,0,0,5.569,1.586m10.936-33.023h9.81V86.74h-9.85l-.4-5.177a13.681,13.681,0,0,1-4.4,4.53,11.592,11.592,0,0,1-6.372,1.732,20.163,20.163,0,0,1-8.363-1.754,21.968,21.968,0,0,1-6.875-4.843,22.3,22.3,0,0,1-4.624-7.139,22.791,22.791,0,0,1-1.648-8.684,22.408,22.408,0,0,1,1.568-8.391,21.136,21.136,0,0,1,4.422-6.888,20.921,20.921,0,0,1,6.594-4.634,19.494,19.494,0,0,1,8.041-1.67,14.008,14.008,0,0,1,7.177,1.837,18.6,18.6,0,0,1,5.367,4.676Z" transform="translate(-236.729 -24.118)" fill="#2d2926"/>
      <path id="Tracé_467" data-name="Tracé 467" d="M540.365,26.035h9.81V67.783h-9.81Zm4.945-6.22a4.934,4.934,0,0,1-3.618-1.482A5.055,5.055,0,0,1,540.2,14.6a5.074,5.074,0,0,1,1.487-3.716,4.9,4.9,0,0,1,3.618-1.5,4.837,4.837,0,0,1,3.6,1.5,5.115,5.115,0,0,1,1.467,3.716,5.1,5.1,0,0,1-1.467,3.737,4.871,4.871,0,0,1-3.6,1.482" transform="translate(-297.303 -5.161)" fill="#2d2926"/>
      <rect id="Rectangle_518" data-name="Rectangle 518" width="9.81" height="62.622" transform="translate(260.238)" fill="#2d2926"/>
      <path id="Tracé_468" data-name="Tracé 468" d="M111.119,87.881a20.728,20.728,0,0,1-16.873-8.9l7.871-5.97a11.062,11.062,0,0,0,9,4.752,11.573,11.573,0,0,0,0-23.13,11.061,11.061,0,0,0-9,4.75L94.249,53.4a20.731,20.731,0,0,1,16.87-8.9c11.517,0,20.887,9.729,20.887,21.687s-9.37,21.687-20.887,21.687" transform="translate(-51.869 -24.494)" fill="#df281e"/>
      <path id="Tracé_469" data-name="Tracé 469" d="M205.2,87.818c-11.517,0-20.887-9.729-20.887-21.687s9.37-21.687,20.887-21.687a20.732,20.732,0,0,1,16.873,8.9L214.2,59.319a11.062,11.062,0,0,0-9-4.753,11.573,11.573,0,0,0,0,23.13,11.061,11.061,0,0,0,9-4.751l7.87,5.974a20.732,20.732,0,0,1-16.87,8.9" transform="translate(-101.438 -24.459)" fill="#2d2926"/>
      <path id="Tracé_470" data-name="Tracé 470" d="M126.483,37.913a25.224,25.224,0,0,0-35.868-.332L89.4,36.242a26.95,26.95,0,0,1,38.323.354Z" transform="translate(-49.201 -15.64)" fill="#df281e"/>
      <path id="Tracé_471" data-name="Tracé 471" d="M108.383,145.434A27.031,27.031,0,0,1,89.4,137.611l1.216-1.339a25.225,25.225,0,0,0,35.868-.332l1.238,1.317a27.011,27.011,0,0,1-19.339,8.178" transform="translate(-49.202 -74.815)" fill="#df281e"/>
      <path id="Tracé_472" data-name="Tracé 472" d="M20.887,87.818C9.37,87.818,0,78.089,0,66.13S9.37,44.443,20.887,44.443a20.73,20.73,0,0,1,16.873,8.9l-7.872,5.971a11.062,11.062,0,0,0-9-4.752,11.573,11.573,0,0,0,0,23.13,11.06,11.06,0,0,0,9-4.751l7.87,5.974a20.731,20.731,0,0,1-16.87,8.9" transform="translate(0 -24.459)" fill="#2d2926"/>
      <rect id="Rectangle_519" data-name="Rectangle 519" width="143.931" height="15.218" transform="translate(126.471 69.702)" fill="#df281e"/>
      <path id="Tracé_473" data-name="Tracé 473" d="M291,168.434h1.6l-.806-2.282Zm.129-3.969h1.346l2.177,6.229H293.4l-.36-1.032h-2.468l-.36,1.032h-1.256Z" transform="translate(-159.026 -90.514)" fill="#fff"/>
      <path id="Tracé_474" data-name="Tracé 474" d="M303.22,170.695v-6.229H304.5l2.339,4.009v-4.009h1.183v6.229h-1.277l-2.34-4.01v4.01Z" transform="translate(-166.878 -90.514)" fill="#fff"/>
      <path id="Tracé_475" data-name="Tracé 475" d="M317.534,168.434h1.6l-.806-2.282Zm.129-3.969h1.345l2.177,6.229h-1.256l-.36-1.032H317.1l-.36,1.032h-1.256Z" transform="translate(-173.628 -90.514)" fill="#fff"/>
      <path id="Tracé_476" data-name="Tracé 476" d="M329.724,170.695v-6.229h1.183v5h2.416v1.228Z" transform="translate(-181.465 -90.514)" fill="#fff"/>
      <path id="Tracé_477" data-name="Tracé 477" d="M341.951,164.465h1.4l-2.075,3.421v2.808h-1.182v-2.808l-2.075-3.421h1.4l1.269,2.087Z" transform="translate(-186.028 -90.514)" fill="#fff"/>
      <path id="Tracé_478" data-name="Tracé 478" d="M352.807,170.673a2.851,2.851,0,0,1-.967-.165,2.366,2.366,0,0,1-.806-.476,1.781,1.781,0,0,1-.495-.738l1.111-.428a.63.63,0,0,0,.214.283,1.317,1.317,0,0,0,.408.213,1.666,1.666,0,0,0,.536.083,1.55,1.55,0,0,0,.524-.087,1.011,1.011,0,0,0,.4-.243.5.5,0,0,0,.152-.365.441.441,0,0,0-.159-.347,1.184,1.184,0,0,0-.406-.22,3.511,3.511,0,0,0-.51-.127,4.763,4.763,0,0,1-1.16-.318,1.969,1.969,0,0,1-.807-.609,1.59,1.59,0,0,1-.3-.991,1.666,1.666,0,0,1,.315-1.01,2.108,2.108,0,0,1,.832-.672,2.611,2.611,0,0,1,1.117-.24,2.852,2.852,0,0,1,.96.165,2.383,2.383,0,0,1,.807.476,1.766,1.766,0,0,1,.5.748l-1.11.418a.621.621,0,0,0-.214-.28,1.309,1.309,0,0,0-.406-.21,1.712,1.712,0,0,0-.531-.08,1.456,1.456,0,0,0-.521.085,1.089,1.089,0,0,0-.4.245.489.489,0,0,0-.156.356.506.506,0,0,0,.148.4.858.858,0,0,0,.392.191q.244.058.54.1a4.2,4.2,0,0,1,1.122.332,2.207,2.207,0,0,1,.825.632,1.5,1.5,0,0,1,.311.959,1.681,1.681,0,0,1-.312,1.01,2.093,2.093,0,0,1-.827.672,2.61,2.61,0,0,1-1.118.24" transform="translate(-192.92 -90.377)" fill="#fff"/>
      <path id="Tracé_479" data-name="Tracé 479" d="M362.729,170.695v-6.229h3.8v1.228h-2.614v1.05h2.04v1.228h-2.04v1.5h2.614v1.228Z" transform="translate(-199.629 -90.514)" fill="#fff"/>
      <path id="Tracé_480" data-name="Tracé 480" d="M374.5,167.019h1.059a.649.649,0,0,0,.353-.1.736.736,0,0,0,.257-.271.758.758,0,0,0,.1-.38.77.77,0,0,0-.354-.65.643.643,0,0,0-.353-.1H374.5Zm-1.183,3.675v-6.229H375.7a1.608,1.608,0,0,1,.885.255,1.849,1.849,0,0,1,.629.686,1.952,1.952,0,0,1,.234.95,2.07,2.07,0,0,1-.137.759,1.875,1.875,0,0,1-.386.612,1.776,1.776,0,0,1-.578.41l1.427,2.559h-1.363l-1.367-2.448H374.5v2.448Z" transform="translate(-205.456 -90.514)" fill="#fff"/>
      <path id="Tracé_481" data-name="Tracé 481" d="M400.553,168.434h1.6l-.806-2.282Zm.13-3.969h1.345l2.177,6.229h-1.256l-.36-1.032H400.12l-.36,1.032H398.5Z" transform="translate(-219.318 -90.514)" fill="#fff"/>
      <path id="Tracé_482" data-name="Tracé 482" d="M413.927,169.466h.806a1.676,1.676,0,0,0,.7-.147,1.86,1.86,0,0,0,.581-.405,1.927,1.927,0,0,0,.4-2.067,1.942,1.942,0,0,0-.394-.6,1.833,1.833,0,0,0-.579-.407,1.688,1.688,0,0,0-.7-.147h-.806Zm-1.183,1.228v-6.229h1.989a2.828,2.828,0,0,1,1.163.242,3.029,3.029,0,0,1,.956.672,3.173,3.173,0,0,1,.648.992,3.173,3.173,0,0,1-.648,3.408,3.009,3.009,0,0,1-.956.672,2.814,2.814,0,0,1-1.163.243Z" transform="translate(-227.155 -90.514)" fill="#fff"/>
      <path id="Tracé_483" data-name="Tracé 483" d="M426.134,168.434h1.6l-.806-2.282Zm.129-3.969h1.345l2.178,6.229h-1.256l-.36-1.032H425.7l-.36,1.032h-1.256Z" transform="translate(-233.396 -90.514)" fill="#fff"/>
      <path id="Tracé_484" data-name="Tracé 484" d="M439.508,167.019h.9a.648.648,0,0,0,.356-.1.744.744,0,0,0,.255-.271.753.753,0,0,0,.1-.38.744.744,0,0,0-.1-.376.763.763,0,0,0-.255-.274.643.643,0,0,0-.356-.1h-.9Zm-1.183,3.675v-6.229h2.211a1.6,1.6,0,0,1,.889.258,1.894,1.894,0,0,1,.632.688,1.939,1.939,0,0,1,.235.946,1.917,1.917,0,0,1-.24.954,1.877,1.877,0,0,1-.64.683,1.608,1.608,0,0,1-.877.254h-1.028v2.448Z" transform="translate(-241.234 -90.514)" fill="#fff"/>
      <path id="Tracé_485" data-name="Tracé 485" d="M452.979,164.465v1.228h-1.766v5H450.03v-5h-1.765v-1.228Z" transform="translate(-246.704 -90.514)" fill="#fff"/>
      <path id="Tracé_486" data-name="Tracé 486" d="M460.654,170.695v-6.229h3.8v1.228h-2.614v1.05h2.04v1.228h-2.04v1.5h2.614v1.228Z" transform="translate(-253.522 -90.514)" fill="#fff"/>
      <path id="Tracé_487" data-name="Tracé 487" d="M472.425,167.019h1.058a.651.651,0,0,0,.354-.1.74.74,0,0,0,.257-.271.754.754,0,0,0,.1-.38.744.744,0,0,0-.1-.376.759.759,0,0,0-.257-.274.646.646,0,0,0-.354-.1h-1.058Zm-1.183,3.675v-6.229h2.383a1.608,1.608,0,0,1,.885.255,1.849,1.849,0,0,1,.629.686,1.951,1.951,0,0,1,.234.95,2.07,2.07,0,0,1-.137.759,1.877,1.877,0,0,1-.386.612,1.778,1.778,0,0,1-.578.41l1.427,2.559h-1.363l-1.366-2.448h-.544v2.448Z" transform="translate(-259.349 -90.514)" fill="#fff"/>
      <path id="Tracé_488" data-name="Tracé 488" d="M498.479,168.434h1.6l-.806-2.282Zm.129-3.969h1.345l2.178,6.229h-1.256l-.36-1.032h-2.468l-.36,1.032H496.43Z" transform="translate(-273.212 -90.514)" fill="#fff"/>
      <path id="Tracé_489" data-name="Tracé 489" d="M510.7,170.695v-6.229h1.277l2.339,4.009v-4.009H515.5v6.229h-1.278l-2.339-4.01v4.01Z" transform="translate(-281.064 -90.514)" fill="#fff"/>
      <path id="Tracé_490" data-name="Tracé 490" d="M528.022,164.465v1.228h-1.766v5h-1.183v-5h-1.765v-1.228Z" transform="translate(-288.004 -90.514)" fill="#fff"/>
      <rect id="Rectangle_520" data-name="Rectangle 520" width="1.182" height="6.229" transform="translate(241.004 73.951)" fill="#fff"/>
      <path id="Tracé_491" data-name="Tracé 491" d="M543.564,170.668a2.661,2.661,0,0,1-1.144-.251,2.979,2.979,0,0,1-.941-.7,3.317,3.317,0,0,1-.635-1.03,3.548,3.548,0,0,1,0-2.51,3.3,3.3,0,0,1,.635-1.028,2.978,2.978,0,0,1,.941-.693,2.737,2.737,0,0,1,2.486.1,3.048,3.048,0,0,1,1.015.932l-1.054.591a1.847,1.847,0,0,0-.578-.469,1.577,1.577,0,0,0-1.41-.02,1.764,1.764,0,0,0-.564.431,2.1,2.1,0,0,0-.379.636,2.277,2.277,0,0,0,0,1.556,2.051,2.051,0,0,0,.379.636,1.81,1.81,0,0,0,.564.431,1.566,1.566,0,0,0,1.411-.02,1.864,1.864,0,0,0,.576-.472l1.054.6a3.087,3.087,0,0,1-1.015.93,2.652,2.652,0,0,1-1.342.351" transform="translate(-297.529 -90.372)" fill="#fff"/>
      <rect id="Rectangle_521" data-name="Rectangle 521" width="1.182" height="6.229" transform="translate(249.364 73.951)" fill="#fff"/>
      <path id="Tracé_492" data-name="Tracé 492" d="M561.154,167.019h.9a.65.65,0,0,0,.356-.1.778.778,0,0,0,.254-1.027.767.767,0,0,0-.254-.274.644.644,0,0,0-.356-.1h-.9Zm-1.183,3.675v-6.229h2.211a1.594,1.594,0,0,1,.889.258,1.9,1.9,0,0,1,.632.688,1.938,1.938,0,0,1,.235.946,1.916,1.916,0,0,1-.24.954,1.88,1.88,0,0,1-.64.683,1.609,1.609,0,0,1-.877.254h-1.028v2.448Z" transform="translate(-308.182 -90.514)" fill="#fff"/>
      <path id="Tracé_493" data-name="Tracé 493" d="M570.464,170.695v-6.229h3.8v1.228h-2.614v1.05h2.04v1.228h-2.04v1.5h2.614v1.228Z" transform="translate(-313.957 -90.514)" fill="#fff"/>
      <path id="Tracé_494" data-name="Tracé 494" d="M582.236,167.019h1.059a.651.651,0,0,0,.353-.1.74.74,0,0,0,.257-.271.756.756,0,0,0,.1-.38.747.747,0,0,0-.1-.376.76.76,0,0,0-.257-.274.646.646,0,0,0-.353-.1h-1.059Zm-1.183,3.675v-6.229h2.383a1.609,1.609,0,0,1,.885.255,1.846,1.846,0,0,1,.629.686,1.95,1.95,0,0,1,.234.95,2.07,2.07,0,0,1-.137.759,1.883,1.883,0,0,1-.386.612,1.776,1.776,0,0,1-.578.41l1.427,2.559h-1.364l-1.366-2.448h-.544v2.448Z" transform="translate(-319.784 -90.514)" fill="#fff"/>
      <rect id="Rectangle_522" data-name="Rectangle 522" width="1.881" height="1.953" transform="translate(174.959 76.119)" fill="#2d2926"/>
      <rect id="Rectangle_523" data-name="Rectangle 523" width="1.834" height="1.904" transform="translate(218.731 76.168)" fill="#2d2926"/>
    </g>
  </g>
</svg>
