<svg xmlns="http://www.w3.org/2000/svg" width="62.621" height="59.601" viewBox="0 0 62.621 59.601"><g transform="translate(-467.219 -763.594)"><g transform="translate(443.017 763.594)" opacity="0.25"><path d="M86.265,52.022,70.35,20.077V3.492h2.1a1.746,1.746,0,1,0,0-3.492H49.862a1.746,1.746,0,1,0,0,3.492h2.1V20.077L36.043,52.02A5.238,5.238,0,0,0,40.728,59.6h40.85A5.238,5.238,0,0,0,86.265,52.022Zm-31-30.756a1.746,1.746,0,0,0,.183-.779v-17H66.857v17a1.747,1.747,0,0,0,.183.779l5.7,11.444h-6.4a5.469,5.469,0,0,0-10.368,0h-6.4Zm7.866,13.19a1.979,1.979,0,1,1-1.979-1.979A1.981,1.981,0,0,1,63.132,34.457ZM81.578,56.109H40.728a1.746,1.746,0,0,1-1.561-2.529L47.825,36.2h8.145a5.469,5.469,0,0,0,10.368,0h8.145L83.14,53.582A1.746,1.746,0,0,1,81.578,56.109Z" fill="#fff"/><path d="M150.473,353a5.471,5.471,0,1,0,5.471,5.471A5.477,5.477,0,0,0,150.473,353Zm0,7.45a1.979,1.979,0,1,1,1.979-1.979A1.981,1.981,0,0,1,150.473,360.45Z" transform="translate(-96.77 -311.908)" fill="#fff"/><path d="M292.469,354.406a1.746,1.746,0,1,0-1.2,2.012A1.747,1.747,0,0,0,292.469,354.406Z" transform="translate(-224.016 -311.909)" fill="#fff"/><path d="M340.471,386.412a1.746,1.746,0,1,0-1.2,2.012A1.746,1.746,0,0,0,340.471,386.412Z" transform="translate(-266.43 -340.189)" fill="#fff"/><path d="M276.472,418.406a1.746,1.746,0,1,0-1.2,2.012A1.747,1.747,0,0,0,276.472,418.406Z" transform="translate(-209.881 -368.458)" fill="#fff"/></g><g transform="translate(431.736 774.593)"><path d="M58.968,24.059,51.608,9.285V1.615h.969a.808.808,0,1,0,0-1.615H42.133a.808.808,0,1,0,0,1.615H43.1v7.67l-7.36,14.773a2.423,2.423,0,0,0,2.167,3.506H56.8A2.423,2.423,0,0,0,58.968,24.059ZM44.632,9.835a.808.808,0,0,0,.085-.36V1.615h5.276v7.86a.808.808,0,0,0,.085.36l2.637,5.293H49.752a2.529,2.529,0,0,0-4.795,0H42Zm3.638,6.1a.915.915,0,1,1-.915-.915A.916.916,0,0,1,48.27,15.936ZM56.8,25.949H37.909a.808.808,0,0,1-.722-1.17l4-8.036h3.767a2.529,2.529,0,0,0,4.795,0h3.767l4,8.037A.808.808,0,0,1,56.8,25.949Z" fill="#fff"/><path d="M147.532,353a2.53,2.53,0,1,0,2.53,2.53A2.533,2.533,0,0,0,147.532,353Zm0,3.446a.915.915,0,1,1,.915-.915A.916.916,0,0,1,147.532,356.446Z" transform="translate(-103.623 -333.996)" fill="#fff"/><path d="M290.611,353.651a.807.807,0,1,0-.557.93A.808.808,0,0,0,290.611,353.651Z" transform="translate(-239.88 -333.997)" fill="#fff"/><path d="M338.613,385.657a.807.807,0,1,0-.557.93A.807.807,0,0,0,338.613,385.657Z" transform="translate(-285.298 -364.28)" fill="#fff"/><path d="M274.614,417.65a.807.807,0,1,0-.557.93A.808.808,0,0,0,274.614,417.65Z" transform="translate(-224.744 -394.551)" fill="#fff"/></g></g></svg>