<svg xmlns="http://www.w3.org/2000/svg" xmlns:xlink="http://www.w3.org/1999/xlink" width="78.798" height="59.488" viewBox="0 0 78.798 59.488"><defs><clipPath id="a"><rect width="25.5" height="19.251" transform="translate(0 0)" fill="#fff"/></clipPath><clipPath id="b"><rect width="78.798" height="59.488" fill="#fff"/></clipPath></defs><g transform="translate(-451.642 -763.729)"><g transform="translate(465 780.342)"><g clip-path="url(#a)"><path d="M22.038,6.593A3.995,3.995,0,0,0,21.863,1.2,4.012,4.012,0,0,0,19.012,0H19a4.017,4.017,0,0,0-2.073.578.668.668,0,1,0,.69,1.143A2.665,2.665,0,0,1,21.667,4a2.638,2.638,0,0,1-1.214,2.232,2.682,2.682,0,0,1-2.174.335.667.667,0,0,0-.829.913.661.661,0,0,0,.371.34l.075.022a3.992,3.992,0,0,0,2.976-.318,5.16,5.16,0,0,1,3.294,4.81v1.833H20.838a8.2,8.2,0,0,0-4.409-6.2,4.834,4.834,0,1,0-7.358,0,8.283,8.283,0,0,0-2.1,1.51,8.149,8.149,0,0,0-2.318,4.692H1.333V12.334A5.182,5.182,0,0,1,2.844,8.683,5.253,5.253,0,0,1,4.63,7.526,3.98,3.98,0,0,0,6.5,8,3.884,3.884,0,0,0,7.584,7.85a.656.656,0,0,0,.421-.289.668.668,0,0,0-.7-1.016l-.07.021a2.681,2.681,0,0,1-2.2-.331,2.665,2.665,0,0,1,1.452-4.9h0a2.682,2.682,0,0,1,1.384.388.671.671,0,0,0,.505.077.661.661,0,0,0,.411-.3A.647.647,0,0,0,8.618.62L8.542.546H8.507A3.993,3.993,0,0,0,3.46,6.592,6.49,6.49,0,0,0,0,12.334v2.5a.667.667,0,0,0,.667.667H4.583v3.083a.667.667,0,0,0,.667.667h15a.667.667,0,0,0,.667-.667V15.5h3.918a.668.668,0,0,0,.665-.667v-2.5a6.491,6.491,0,0,0-3.462-5.741M12.75,8.334a3.5,3.5,0,1,1,3.5-3.5,3.512,3.512,0,0,1-3.5,3.5m-2.566.6a4.8,4.8,0,0,0,5.137,0,6.879,6.879,0,0,1,4.262,6.32v2.667H5.917V15.25a6.781,6.781,0,0,1,4.267-6.32" fill="#fff"/></g></g><g transform="translate(451.642 763.729)" opacity="0.25"><g transform="translate(0 0)" clip-path="url(#b)"><path d="M68.1,20.374a12.345,12.345,0,0,0-.541-16.662A12.4,12.4,0,0,0,58.749,0h-.037A12.412,12.412,0,0,0,52.306,1.79a2.063,2.063,0,1,0,2.132,3.532,8.236,8.236,0,0,1,12.515,7.045,8.152,8.152,0,0,1-3.751,6.9A8.288,8.288,0,0,1,56.484,20.3a2.06,2.06,0,0,0-2.562,2.821,2.042,2.042,0,0,0,1.146,1.051l.232.068a12.335,12.335,0,0,0,9.2-.983A15.946,15.946,0,0,1,74.676,38.12v5.664H64.392A25.347,25.347,0,0,0,50.768,24.613a14.937,14.937,0,1,0-22.737,0,25.6,25.6,0,0,0-6.48,4.666,25.182,25.182,0,0,0-7.163,14.5H4.119V38.114A16.013,16.013,0,0,1,8.788,26.832a16.231,16.231,0,0,1,5.519-3.575,12.3,12.3,0,0,0,5.769,1.468,12,12,0,0,0,3.359-.467,2.028,2.028,0,0,0,1.3-.893,2.064,2.064,0,0,0-2.16-3.14l-.216.065a8.286,8.286,0,0,1-6.789-1.023A8.235,8.235,0,0,1,20.058,4.129h.009a8.288,8.288,0,0,1,4.277,1.2,2.072,2.072,0,0,0,1.561.238,2.043,2.043,0,0,0,1.27-.933,2,2,0,0,0-.544-2.716L26.4,1.688h-.108a12.34,12.34,0,0,0-15.6,18.683A20.054,20.054,0,0,0,0,38.114v7.725A2.063,2.063,0,0,0,2.061,47.9h12.1v9.527a2.063,2.063,0,0,0,2.061,2.061H62.575a2.061,2.061,0,0,0,2.061-2.061V47.9H76.743A2.063,2.063,0,0,0,78.8,45.839V38.114a20.057,20.057,0,0,0-10.7-17.74m-28.7,5.38A10.815,10.815,0,1,1,50.214,14.938,10.853,10.853,0,0,1,39.4,25.754M31.47,27.6a14.837,14.837,0,0,0,15.874,0,21.257,21.257,0,0,1,13.17,19.53v8.241H18.284V47.125A20.954,20.954,0,0,1,31.47,27.6" transform="translate(0 -0.002)" fill="#fff"/></g></g></g></svg>