<svg xmlns="http://www.w3.org/2000/svg" width="60.364" height="55.797" viewBox="0 0 60.364 55.797"><g transform="translate(-464.012 -770.594)"><g transform="translate(464.012 776.594)"><path d="M3.762,34H.537A.508.508,0,0,0,0,34.537v6.449a.508.508,0,0,0,.537.537H3.762a.508.508,0,0,0,.537-.537V34.537A.508.508,0,0,0,3.762,34Zm-.537,6.449H1.075V35.075h2.15Z" transform="translate(0 -15.729)" fill="#fff"/><path d="M30.462,29H27.237a.508.508,0,0,0-.537.537v9.136a.508.508,0,0,0,.537.537h3.224A.508.508,0,0,0,31,38.673V29.537A.539.539,0,0,0,30.462,29Zm-.537,9.136h-2.15V30.075h2.15Z" transform="translate(-12.352 -13.416)" fill="#fff"/><path d="M17.062,23.1H13.837a.508.508,0,0,0-.537.537V35.944a.508.508,0,0,0,.537.537h3.224a.508.508,0,0,0,.537-.537V23.637A.508.508,0,0,0,17.062,23.1Zm-.537,12.306h-2.15V24.175h2.15Z" transform="translate(-6.153 -10.686)" fill="#fff"/><path d="M43.762,15.6H40.537a.508.508,0,0,0-.537.537V32.474a.508.508,0,0,0,.537.537h3.224a.508.508,0,0,0,.537-.537V16.137A.508.508,0,0,0,43.762,15.6Zm-.537,16.337h-2.15V16.675h2.15Z" transform="translate(-18.504 -7.217)" fill="#fff"/><path d="M22.087,4.245a2.393,2.393,0,0,0,3.762-1.935A2.462,2.462,0,0,0,23.43,0a2.386,2.386,0,0,0-2.365,2.365,2.446,2.446,0,0,0,.269,1.075L17.841,6.449a2.352,2.352,0,0,0-1.343-.43,2.421,2.421,0,0,0-1.612.645l-4.3-2.633a2.723,2.723,0,0,0,.107-.7,2.365,2.365,0,1,0-4.729,0,2.167,2.167,0,0,0,.322,1.182L3.493,7.147a2.392,2.392,0,0,0-1.236-.376A2.366,2.366,0,1,0,4.729,9.136,2.091,2.091,0,0,0,4.353,7.9L7.094,5.266a2.587,2.587,0,0,0,1.29.376,2.358,2.358,0,0,0,1.666-.7l4.3,2.579a2.156,2.156,0,0,0-.161.806,2.365,2.365,0,0,0,4.729,0A2.888,2.888,0,0,0,18.648,7.2ZM2.365,10.425a1.29,1.29,0,1,1,0-2.579,1.22,1.22,0,0,1,.86.322h.054a1.3,1.3,0,0,1,.376.914,1.356,1.356,0,0,1-1.29,1.343Zm6.019-5.8a1.308,1.308,0,0,1-1.29-1.29,1.29,1.29,0,1,1,2.579,0,1.345,1.345,0,0,1-1.29,1.29ZM23.43,1.075a1.308,1.308,0,0,1,1.29,1.29,1.29,1.29,0,0,1-2.579,0A1.345,1.345,0,0,1,23.43,1.075ZM16.5,9.619a1.29,1.29,0,1,1,1.29-1.29A1.308,1.308,0,0,1,16.5,9.619Z" fill="#fff"/></g><g transform="translate(468.463 770.594)" opacity="0.25"><path d="M8.137,34H1.162A1.1,1.1,0,0,0,0,35.162V49.112a1.1,1.1,0,0,0,1.162,1.162H8.137A1.1,1.1,0,0,0,9.3,49.112V35.162A1.1,1.1,0,0,0,8.137,34ZM6.975,47.949H2.325V36.325h4.65Z" transform="translate(0 5.523)" fill="#fff"/><path d="M34.837,29H27.862A1.1,1.1,0,0,0,26.7,30.162V49.924a1.1,1.1,0,0,0,1.162,1.162h6.975A1.1,1.1,0,0,0,36,49.924V30.162A1.165,1.165,0,0,0,34.837,29ZM33.675,48.761h-4.65V31.325h4.65Z" transform="translate(4.337 4.711)" fill="#fff"/><path d="M21.437,23.1H14.462A1.1,1.1,0,0,0,13.3,24.262v26.62a1.1,1.1,0,0,0,1.162,1.162h6.975A1.1,1.1,0,0,0,22.6,50.882V24.262A1.1,1.1,0,0,0,21.437,23.1ZM20.275,49.72h-4.65V25.425h4.65Z" transform="translate(2.16 3.752)" fill="#fff"/><path d="M48.137,15.6H41.162A1.1,1.1,0,0,0,40,16.762V52.1a1.1,1.1,0,0,0,1.162,1.162h6.975A1.1,1.1,0,0,0,49.3,52.1V16.762A1.1,1.1,0,0,0,48.137,15.6ZM46.975,50.938h-4.65V17.925h4.65Z" transform="translate(6.497 2.534)" fill="#fff"/><path d="M47.776,9.183A5.177,5.177,0,0,0,55.913,5a5.325,5.325,0,0,0-5.231-5,5.16,5.16,0,0,0-5.115,5.115,5.291,5.291,0,0,0,.581,2.325l-7.556,6.51a5.087,5.087,0,0,0-2.906-.93A5.237,5.237,0,0,0,32.2,14.414l-9.3-5.7a5.889,5.889,0,0,0,.232-1.511,5.115,5.115,0,0,0-10.229,0,4.687,4.687,0,0,0,.7,2.557l-6.045,5.7a5.173,5.173,0,0,0-2.674-.814,5.117,5.117,0,1,0,5.347,5.115,4.523,4.523,0,0,0-.814-2.674l5.928-5.7a5.6,5.6,0,0,0,2.79.814,5.1,5.1,0,0,0,3.6-1.511l9.3,5.58a4.664,4.664,0,0,0-.349,1.744,5.115,5.115,0,0,0,10.229,0,6.247,6.247,0,0,0-.581-2.441ZM5.115,22.551a2.79,2.79,0,0,1,0-5.58,2.64,2.64,0,0,1,1.86.7h.116A2.8,2.8,0,0,1,7.9,19.645a2.933,2.933,0,0,1-2.79,2.906ZM18.134,10a2.829,2.829,0,0,1-2.79-2.79,2.79,2.79,0,1,1,5.58,0A2.91,2.91,0,0,1,18.134,10ZM50.682,2.325a2.829,2.829,0,0,1,2.79,2.79,2.79,2.79,0,1,1-5.58,0A2.91,2.91,0,0,1,50.682,2.325Zm-15,18.483a2.79,2.79,0,1,1,2.79-2.79A2.829,2.829,0,0,1,35.687,20.808Z" transform="translate(0 0)" fill="#fff"/></g></g></svg>