<svg xmlns="http://www.w3.org/2000/svg" width="39.999" height="40" viewBox="0 0 39.999 40"><path d="M39.336,21.333H38.45L32.781,7.475a4.954,4.954,0,0,0,.7-.179,3.764,3.764,0,0,0,2.434-2.254c.045-.135.065-.214.065-.214A.667.667,0,0,0,34.691,4.5c0,.01-.014.05-.035.113A2.453,2.453,0,0,1,33.05,6.036a3.222,3.222,0,0,1-2.711-.2c-2.019-1.325-4.807-2.877-7.067-3.127a3.329,3.329,0,0,0-6.54,0c-2.26.25-5.047,1.8-7.066,3.127a3.222,3.222,0,0,1-2.711.2A2.453,2.453,0,0,1,5.351,4.615c-.021-.063-.033-.1-.035-.113a.667.667,0,0,0-1.293.326s.019.079.065.214A3.764,3.764,0,0,0,6.52,7.3a4.977,4.977,0,0,0,.7.179L1.555,21.333H.669A.666.666,0,0,0,0,22a7.342,7.342,0,0,0,7.333,7.333H8.669A7.342,7.342,0,0,0,16,22a.666.666,0,0,0-.667-.667h-.886L8.8,7.524a3.892,3.892,0,0,0,1.6-.577c1.531-1,4.269-2.623,6.352-2.9A3.327,3.327,0,0,0,18,5.983V36H16a.666.666,0,0,0-.667.667v2.667A.666.666,0,0,0,16,40h8a.666.666,0,0,0,.667-.667V36.667A.666.666,0,0,0,24,36H22V5.983a3.325,3.325,0,0,0,1.253-1.937c2.083.279,4.821,1.9,6.353,2.9a3.9,3.9,0,0,0,1.6.576l-5.65,13.809h-.886A.666.666,0,0,0,24,22a7.342,7.342,0,0,0,7.333,7.333h1.333A7.342,7.342,0,0,0,40,22a.664.664,0,0,0-.665-.667ZM3,21.333,8,9.094,13.01,21.333Zm20.34,17.333H16.67V37.333h6.666ZM21.02,5.046,21,5.054a2.058,2.058,0,0,1-.468.2l-.039.012a1.882,1.882,0,0,1-.984,0l-.038-.012a2.06,2.06,0,0,1-.468-.2l-.018-.007a2,2,0,1,1,2.033,0ZM32,9.094,37.01,21.333H27Z" transform="translate(-0.002)" fill="#ef7607"/></svg>