<svg xmlns="http://www.w3.org/2000/svg" width="32.858" height="40.475" viewBox="0 0 32.858 40.475"><g transform="translate(0 -0.001)"><g transform="translate(4.108 18.704)"><path d="M24.422,47.788l-10.7-18.544a1.614,1.614,0,0,0-2.795,0L.218,47.788a1.615,1.615,0,0,0,1.4,2.421h21.41A1.615,1.615,0,0,0,24.422,47.788ZM12.335,34.955a1.223,1.223,0,0,1,1.221,1.256l-.2,7.042a1.025,1.025,0,0,1-2.048,0l-.2-7.042A1.228,1.228,0,0,1,12.335,34.955ZM12.32,47.693a1.271,1.271,0,1,1,1.271-1.271A1.272,1.272,0,0,1,12.32,47.693Z" transform="translate(0 -28.438)" fill="#fff"/></g><g transform="translate(24.641 8.314)"><path d="M12.214,7.159a.274.274,0,0,1-.1.263L4.45,13.445a.279.279,0,0,1-.175.06.268.268,0,0,1-.186-.077.274.274,0,0,1-.038-.356L7.675,7.9l-2.94-.964a.252.252,0,0,1-.186-.23.263.263,0,0,1,.11-.263l6.023-4.38a.274.274,0,0,1,.394.356L9.06,5.96l2.968.975a.263.263,0,0,1,.186.224Z" transform="translate(-4.001 -2.015)" fill="#fff"/></g><g transform="matrix(0.866, 0.5, -0.5, 0.866, 15.743, 0.001)"><path d="M8.213,6.346a.274.274,0,0,0-.1-.263L.448.06A.279.279,0,0,0,.273,0,.268.268,0,0,0,.087.077.274.274,0,0,0,.049.433L3.673,5.607l-2.94.964a.252.252,0,0,0-.186.23.263.263,0,0,0,.11.263l6.023,4.38a.274.274,0,0,0,.394-.356L5.059,7.545l2.968-.975a.263.263,0,0,0,.186-.224Z" transform="translate(0 0)" fill="#fff"/></g><g transform="translate(0 8.314)"><path d="M4.006,7.159a.274.274,0,0,0,.1.263l7.666,6.023a.279.279,0,0,0,.175.06.268.268,0,0,0,.186-.077.274.274,0,0,0,.038-.356L8.545,7.9l2.94-.964a.252.252,0,0,0,.186-.23.263.263,0,0,0-.11-.263L5.539,2.062a.274.274,0,0,0-.394.356L7.159,5.96l-2.968.975a.263.263,0,0,0-.186.224Z" transform="translate(-4.001 -2.015)" fill="#fff"/></g></g></svg>