<svg xmlns="http://www.w3.org/2000/svg" xmlns:xlink="http://www.w3.org/1999/xlink" width="37.429" height="37.45" viewBox="0 0 37.429 37.45"><defs><clipPath id="a"><rect width="37.429" height="37.45" fill="#ef7607"/></clipPath></defs><g clip-path="url(#a)"><path d="M36.773,32.45l-.009-.008-4.978-4.979A17.4,17.4,0,0,0,32.1,7.973l1.4-1.4,1.145,1.144a1.337,1.337,0,0,0,1.426.307,1.374,1.374,0,0,0,.9-1.189l.45-5.394A1.345,1.345,0,0,0,36.186,0a1.322,1.322,0,0,0-.208,0L30.594.453a1.373,1.373,0,0,0-1.193.9,1.338,1.338,0,0,0,.307,1.426l1.144,1.144L29.729,5.051a17.477,17.477,0,1,0-2.287,26.756l4.978,4.978a2.248,2.248,0,0,0,1.6.665h.006a2.231,2.231,0,0,0,1.587-.663l1.156-1.147a2.255,2.255,0,0,0,.009-3.189M5.522,24.268A13.723,13.723,0,0,1,3.8,18.952l2.967,2.967a1.86,1.86,0,0,0,2.63.012l.012-.012,4.3-4.29,3.045,3.038a1.849,1.849,0,0,0,1.325.554h.005a1.839,1.839,0,0,0,1.314-.553l9.985-9.978A13.728,13.728,0,1,1,5.522,24.268m5.17-18.762a13.344,13.344,0,0,1,8.164-1.593l.422.05a13.33,13.33,0,0,1,7.617,3.548c.064.061.127.122.19.184l-9,9-3.044-3.039a1.9,1.9,0,0,0-2.646,0l-4.3,4.287L4.178,14.034a13.63,13.63,0,0,1,6.514-8.527" transform="translate(0 0)" fill="#ef7607"/></g></svg>