<svg xmlns="http://www.w3.org/2000/svg" width="43" height="43" viewBox="0 0 43 43"><g transform="translate(-917 -748)"><circle cx="21.5" cy="21.5" r="21.5" transform="translate(917 748)" fill="#ef7607"/><path d="M23.84,12.928H23.3l-3.436-8.4a3,3,0,0,0,.426-.108,2.281,2.281,0,0,0,1.475-1.366c.027-.082.039-.13.039-.13a.4.4,0,0,0-.783-.2c0,.006-.008.03-.021.069a1.487,1.487,0,0,1-.973.861,1.953,1.953,0,0,1-1.643-.123,11.285,11.285,0,0,0-4.283-1.9,2.017,2.017,0,0,0-3.963,0A11.288,11.288,0,0,0,5.859,3.534a1.953,1.953,0,0,1-1.643.124A1.486,1.486,0,0,1,3.243,2.8c-.013-.038-.02-.063-.021-.069a.4.4,0,0,0-.784.2s.012.048.039.13A2.281,2.281,0,0,0,3.952,4.421a3.016,3.016,0,0,0,.426.108l-3.436,8.4H.406a.4.4,0,0,0-.4.4,4.449,4.449,0,0,0,4.444,4.444h.808A4.449,4.449,0,0,0,9.7,13.332a.4.4,0,0,0-.4-.4H8.757L5.334,4.56A2.358,2.358,0,0,0,6.3,4.21a11.175,11.175,0,0,1,3.849-1.758,2.016,2.016,0,0,0,.759,1.174V21.817H9.7a.4.4,0,0,0-.4.4v1.616a.4.4,0,0,0,.4.4h4.848a.4.4,0,0,0,.4-.4V22.221a.4.4,0,0,0-.4-.4H13.334V3.626a2.015,2.015,0,0,0,.759-1.174,11.18,11.18,0,0,1,3.85,1.759,2.362,2.362,0,0,0,.968.349l-3.424,8.369H14.95a.4.4,0,0,0-.4.4,4.449,4.449,0,0,0,4.444,4.444H19.8a4.449,4.449,0,0,0,4.444-4.444.4.4,0,0,0-.4-.4Zm-22.023,0L4.851,5.511l3.034,7.417Zm12.326,10.5H10.1v-.808h4.04Zm-1.4-20.375-.011,0a1.247,1.247,0,0,1-.284.12l-.023.007a1.14,1.14,0,0,1-.6,0L11.8,3.183a1.249,1.249,0,0,1-.284-.12l-.011,0a1.212,1.212,0,1,1,1.232,0ZM19.4,5.511l3.034,7.417H16.361Z" transform="translate(926.138 756.234)" fill="#fff"/></g></svg>