<svg xmlns="http://www.w3.org/2000/svg" xmlns:xlink="http://www.w3.org/1999/xlink" width="43" height="43" viewBox="0 0 43 43"><defs><clipPath id="a"><rect width="22.564" height="22.577" fill="#fff"/></clipPath></defs><g transform="translate(-1503 -748)"><circle cx="21.5" cy="21.5" r="21.5" transform="translate(1503 748)" fill="#ef7607"/><g transform="translate(1513.218 758.211)"><g clip-path="url(#a)"><path d="M22.169,19.563l-.005,0-3-3a10.491,10.491,0,0,0,.191-11.75l.842-.841.69.69a.806.806,0,0,0,.859.185.828.828,0,0,0,.545-.717L22.562.871A.811.811,0,0,0,21.815,0a.8.8,0,0,0-.126,0L18.444.273a.828.828,0,0,0-.719.545.807.807,0,0,0,.185.86l.69.69-.677.677a10.536,10.536,0,1,0-1.378,16.13l3,3a1.355,1.355,0,0,0,.962.4h0a1.345,1.345,0,0,0,.956-.4l.7-.691a1.359,1.359,0,0,0,.005-1.923M3.329,14.63a8.273,8.273,0,0,1-1.035-3.205l1.789,1.789a1.121,1.121,0,0,0,1.585.007l.007-.007,2.59-2.586L10.1,12.459a1.114,1.114,0,0,0,.8.334h0a1.109,1.109,0,0,0,.792-.333l6.02-6.016A8.276,8.276,0,1,1,3.329,14.63M6.446,3.32a8.045,8.045,0,0,1,4.922-.96l.254.03a8.036,8.036,0,0,1,4.592,2.139c.039.037.077.074.115.111L10.9,10.068,9.065,8.236a1.147,1.147,0,0,0-1.595,0L4.879,10.82,2.519,8.46A8.217,8.217,0,0,1,6.446,3.32" transform="translate(0 0)" fill="#fff"/></g></g></g></svg>