<svg xmlns="http://www.w3.org/2000/svg" width="43" height="43" viewBox="0 0 43 43"><g transform="translate(-582 -748)"><circle cx="21.5" cy="21.5" r="21.5" transform="translate(582 748)" fill="#ef7607"/><g transform="translate(593.421 756.234)"><g transform="translate(2.461 11.201)"><path d="M14.626,40.027,8.215,28.921a.967.967,0,0,0-1.674,0L.13,40.027a.967.967,0,0,0,.837,1.45H13.789A.967.967,0,0,0,14.626,40.027ZM7.387,32.341a.733.733,0,0,1,.731.752L8,37.311a.614.614,0,0,1-1.227,0l-.118-4.218A.735.735,0,0,1,7.387,32.341Zm-.009,7.629a.761.761,0,1,1,.761-.761A.762.762,0,0,1,7.378,39.969Z" transform="translate(0 -28.438)" fill="#fff"/></g><g transform="translate(14.757 4.979)"><path d="M8.92,5.1a.164.164,0,0,1-.059.157L4.27,8.861a.167.167,0,0,1-.1.036.161.161,0,0,1-.111-.046.164.164,0,0,1-.023-.213L6.2,5.539,4.44,4.962a.151.151,0,0,1-.111-.138.157.157,0,0,1,.066-.157L8,2.043a.164.164,0,0,1,.236.213L7.031,4.378l1.777.584A.157.157,0,0,1,8.92,5.1Z" transform="translate(-4.001 -2.015)" fill="#fff"/></g><g transform="matrix(0.866, 0.5, -0.5, 0.866, 9.429, 0)"><path d="M4.918,3.8a.164.164,0,0,0-.059-.157L.269.036A.167.167,0,0,0,.164,0,.161.161,0,0,0,.052.046.164.164,0,0,0,.029.259L2.2,3.358.439,3.935a.151.151,0,0,0-.111.138.157.157,0,0,0,.066.157L4,6.854a.164.164,0,0,0,.236-.213L3.03,4.519l1.777-.584A.157.157,0,0,0,4.918,3.8Z" transform="translate(0 0)" fill="#fff"/></g><g transform="translate(0 4.979)"><path d="M4,5.1a.164.164,0,0,0,.059.157L8.654,8.861a.167.167,0,0,0,.1.036.161.161,0,0,0,.111-.046.164.164,0,0,0,.023-.213l-2.171-3.1,1.761-.577a.151.151,0,0,0,.111-.138.157.157,0,0,0-.066-.157L4.922,2.043a.164.164,0,0,0-.236.213L5.893,4.378l-1.777.584A.157.157,0,0,0,4,5.1Z" transform="translate(-4.001 -2.015)" fill="#fff"/></g></g></g></svg>