<svg xmlns="http://www.w3.org/2000/svg" width="68.724" height="55.923" viewBox="0 0 68.724 55.923"><path d="M88.823,70.626a28.506,28.506,0,0,1-8.1,2.228,14.149,14.149,0,0,0,6.2-7.806,28.016,28.016,0,0,1-8.956,3.422,14.1,14.1,0,0,0-24.393,9.641,13.8,13.8,0,0,0,.364,3.218A39.957,39.957,0,0,1,24.877,66.578a14.14,14.14,0,0,0,4.369,18.845,13.761,13.761,0,0,1-6.393-1.762v.175A14.112,14.112,0,0,0,34.168,97.67a14.193,14.193,0,0,1-3.714.5A13.3,13.3,0,0,1,27.8,97.9a14.122,14.122,0,0,0,13.18,9.8,28.269,28.269,0,0,1-17.519,6.044,28.579,28.579,0,0,1-3.364-.2,39.5,39.5,0,0,0,21.6,6.379c25.952,0,40.136-21.51,40.136-40.165,0-.612-.015-1.223-.044-1.82A28.94,28.94,0,0,0,88.823,70.626Z" transform="translate(-20.1 -64)" fill="#e63529"/></svg>