<svg xmlns="http://www.w3.org/2000/svg" width="479" height="479" viewBox="0 0 479 479"><g transform="translate(-0.912 -0.5)" opacity="0.55"><rect width="479" height="479" transform="translate(0.912 0.5)" fill="none"/><path d="M86.5-9.5a96,96,0,1,1-96,96A96.109,96.109,0,0,1,86.5-9.5Zm0,173a77,77,0,1,0-77-77A77.087,77.087,0,0,0,86.5,163.5Z" transform="translate(149.912 149.5)" fill="#fdeada"/><path d="M268.88,18.895a24.457,24.457,0,0,1,7.289,1.111,203.64,203.64,0,0,1,33.293,13.8,24.543,24.543,0,0,1,12.861,18.244l5.765,40.311q2.432,2.249,4.795,4.611t4.607,4.791l40.334,5.762A24.54,24.54,0,0,1,396.063,120.4a203.655,203.655,0,0,1,13.78,33.3,24.543,24.543,0,0,1-3.807,22l-24.428,32.581q.13,3.31.13,6.651t-.13,6.646l24.447,32.6a24.541,24.541,0,0,1,3.8,22,203.645,203.645,0,0,1-13.8,33.293A24.543,24.543,0,0,1,377.8,322.318l-40.311,5.765q-2.249,2.432-4.611,4.795t-4.792,4.607l-5.762,40.334a24.54,24.54,0,0,1-12.869,18.239,203.64,203.64,0,0,1-33.3,13.78,24.471,24.471,0,0,1-22-3.807L221.58,381.6c-4.413.173-8.889.172-13.3,0l-32.594,24.446a24.485,24.485,0,0,1-22,3.8,203.652,203.652,0,0,1-33.292-13.8A24.543,24.543,0,0,1,107.538,377.8l-5.765-40.311q-2.432-2.249-4.795-4.611t-4.607-4.791l-40.334-5.762A24.54,24.54,0,0,1,33.8,309.453a203.657,203.657,0,0,1-13.78-33.3,24.543,24.543,0,0,1,3.807-22l24.428-32.581q-.13-3.31-.13-6.651t.13-6.646L23.808,175.684a24.54,24.54,0,0,1-3.8-22,203.646,203.646,0,0,1,13.8-33.292,24.542,24.542,0,0,1,18.245-12.861l40.311-5.765q2.249-2.432,4.611-4.795t4.792-4.607l5.762-40.334A24.54,24.54,0,0,1,120.4,33.794a203.634,203.634,0,0,1,33.3-13.78,23.8,23.8,0,0,1,7.283-1.109A24.626,24.626,0,0,1,175.7,23.82l32.582,24.428c4.412-.173,8.888-.172,13.3,0l32.6-24.446A24.631,24.631,0,0,1,268.88,18.895Zm-.006,373.052a5.464,5.464,0,0,0,1.623-.247,184.489,184.489,0,0,0,30.152-12.477,5.491,5.491,0,0,0,2.867-4.081l6.248-43.74a9.5,9.5,0,0,1,3.1-5.766q3.36-2.979,6.579-6.2t6.192-6.576a9.5,9.5,0,0,1,5.766-3.1l43.722-6.253a5.493,5.493,0,0,0,4.093-2.874,184.493,184.493,0,0,0,12.5-30.143,5.491,5.491,0,0,0-.858-4.913L364.35,230.229a9.5,9.5,0,0,1-1.883-6.271q.27-4.482.271-9.033t-.271-9.028a9.5,9.5,0,0,1,1.882-6.273l26.495-35.338a5.493,5.493,0,0,0,.862-4.927,184.491,184.491,0,0,0-12.477-30.152,5.491,5.491,0,0,0-4.08-2.867l-43.74-6.248a9.5,9.5,0,0,1-5.766-3.1q-2.979-3.36-6.2-6.579t-6.576-6.192a9.5,9.5,0,0,1-3.1-5.766l-6.253-43.722a5.494,5.494,0,0,0-2.874-4.093,184.479,184.479,0,0,0-30.143-12.5,5.614,5.614,0,0,0-4.913.858L230.234,65.507a9.5,9.5,0,0,1-6.271,1.883,150.935,150.935,0,0,0-18.062,0,9.5,9.5,0,0,1-6.272-1.882L164.291,39.013a5.52,5.52,0,0,0-3.3-1.108h0a5.46,5.46,0,0,0-1.622.247,184.482,184.482,0,0,0-30.152,12.477,5.491,5.491,0,0,0-2.867,4.08L120.1,98.449a9.5,9.5,0,0,1-3.1,5.766q-3.36,2.979-6.58,6.2t-6.192,6.575a9.5,9.5,0,0,1-5.766,3.1l-43.723,6.253a5.493,5.493,0,0,0-4.093,2.874,184.484,184.484,0,0,0-12.5,30.143A5.491,5.491,0,0,0,39,164.274l26.511,35.347a9.5,9.5,0,0,1,1.883,6.271q-.27,4.482-.271,9.034t.271,9.028a9.5,9.5,0,0,1-1.882,6.273l-26.5,35.338a5.493,5.493,0,0,0-.862,4.927,184.5,184.5,0,0,0,12.477,30.152,5.491,5.491,0,0,0,4.08,2.867l43.74,6.248a9.5,9.5,0,0,1,5.766,3.1q2.979,3.36,6.2,6.579t6.576,6.192a9.5,9.5,0,0,1,3.1,5.766l6.253,43.723a5.493,5.493,0,0,0,2.874,4.093,184.49,184.49,0,0,0,30.143,12.5,5.613,5.613,0,0,0,4.913-.858l35.347-26.511a9.5,9.5,0,0,1,6.271-1.883,150.817,150.817,0,0,0,18.062,0,9.5,9.5,0,0,1,6.273,1.882l35.339,26.495A5.519,5.519,0,0,0,268.874,391.947Z" transform="translate(21.355 21.351)" fill="#fdeada"/></g></svg>